<svg xmlns="http://www.w3.org/2000/svg" xmlns:xlink="http://www.w3.org/1999/xlink" width="40" zoomAndPan="magnify" viewBox="0 0 30 30.000001" height="40" preserveAspectRatio="xMidYMid meet" version="1.0"><defs><clipPath id="e7312fe80c"><path d="M 0.484375 4.777344 L 29.515625 4.777344 L 29.515625 24.375 L 0.484375 24.375 Z M 0.484375 4.777344 " clip-rule="nonzero"/></clipPath></defs><path fill="#89ccff" d="M 23.445312 14.574219 C 23.445312 19.253906 19.679688 23.074219 15 23.074219 C 10.339844 23.074219 6.554688 19.273438 6.554688 14.574219 C 6.554688 9.914062 10.277344 6.132812 14.890625 6.074219 C 19.566406 5.992188 23.445312 9.820312 23.445312 14.574219 Z M 23.445312 14.574219 " fill-opacity="1" fill-rule="nonzero"/><path fill="#ffffff" d="M 14.890625 6.074219 C 10.277344 6.132812 6.554688 9.914062 6.554688 14.574219 C 6.554688 19.230469 10.277344 23.015625 14.890625 23.074219 C 9.09375 23.03125 4 19.558594 1.726562 14.574219 C 4 9.585938 9.09375 6.117188 14.890625 6.074219 Z M 14.890625 6.074219 " fill-opacity="1" fill-rule="nonzero"/><path fill="#ffffff" d="M 15.109375 6.074219 C 20.90625 6.117188 26 9.585938 28.273438 14.574219 C 26 19.558594 20.90625 23.03125 15.109375 23.074219 C 19.722656 23.015625 23.445312 19.230469 23.445312 14.574219 C 23.445312 9.914062 19.722656 6.132812 15.109375 6.074219 Z M 15.109375 6.074219 " fill-opacity="1" fill-rule="nonzero"/><path fill="#ffffff" d="M 18.621094 14.574219 C 18.621094 15.054688 18.527344 15.519531 18.34375 15.964844 C 18.160156 16.414062 17.898438 16.808594 17.558594 17.148438 C 17.21875 17.492188 16.828125 17.753906 16.386719 17.9375 C 15.941406 18.125 15.480469 18.214844 15 18.214844 C 14.519531 18.214844 14.058594 18.125 13.613281 17.9375 C 13.171875 17.753906 12.78125 17.492188 12.441406 17.148438 C 12.101562 16.808594 11.839844 16.414062 11.65625 15.964844 C 11.472656 15.519531 11.378906 15.054688 11.378906 14.574219 C 11.378906 14.089844 11.472656 13.625 11.65625 13.179688 C 11.839844 12.730469 12.101562 12.339844 12.441406 11.996094 C 12.78125 11.65625 13.171875 11.390625 13.613281 11.207031 C 14.058594 11.023438 14.519531 10.929688 15 10.929688 C 15.480469 10.929688 15.941406 11.023438 16.386719 11.207031 C 16.828125 11.390625 17.21875 11.65625 17.558594 11.996094 C 17.898438 12.339844 18.160156 12.730469 18.34375 13.179688 C 18.527344 13.625 18.621094 14.089844 18.621094 14.574219 Z M 18.621094 14.574219 " fill-opacity="1" fill-rule="nonzero"/><g clip-path="url(#e7312fe80c)"><path fill="#2169ac" d="M 29.371094 14.066406 C 26.9375 8.734375 21.546875 4.945312 15.117188 4.859375 C 9.175781 4.777344 3.28125 8.257812 0.628906 14.066406 C 0.484375 14.386719 0.484375 14.757812 0.628906 15.078125 C 3.207031 20.730469 8.992188 24.371094 15.128906 24.285156 C 21.253906 24.238281 26.84375 20.625 29.371094 15.078125 C 29.515625 14.757812 29.515625 14.386719 29.371094 14.066406 Z M 15 21.859375 C 10.945312 21.851562 7.761719 18.507812 7.761719 14.574219 C 7.761719 10.449219 11.195312 7.207031 15.09375 7.285156 C 19.035156 7.335938 22.238281 10.605469 22.238281 14.574219 C 22.238281 18.574219 18.980469 21.859375 15 21.859375 Z M 3.066406 14.574219 C 3.851562 13.03125 4.921875 11.683594 6.195312 10.578125 C 5.0625 13.101562 5.0625 16.039062 6.195312 18.566406 C 4.921875 17.460938 3.851562 16.113281 3.066406 14.574219 Z M 23.804688 18.566406 C 24.9375 16.042969 24.9375 13.105469 23.804688 10.578125 C 25.078125 11.683594 26.148438 13.03125 26.933594 14.574219 C 26.148438 16.113281 25.078125 17.460938 23.804688 18.566406 Z M 23.804688 18.566406 " fill-opacity="1" fill-rule="nonzero"/></g><path fill="#2169ac" d="M 15 9.714844 C 12.339844 9.714844 10.171875 11.894531 10.171875 14.574219 C 10.171875 17.25 12.339844 19.429688 15 19.429688 C 17.660156 19.429688 19.828125 17.25 19.828125 14.574219 C 19.828125 11.894531 17.660156 9.714844 15 9.714844 Z M 15 17 C 13.667969 17 12.585938 15.910156 12.585938 14.574219 C 12.585938 13.234375 13.667969 12.144531 15 12.144531 C 16.332031 12.144531 17.414062 13.234375 17.414062 14.574219 C 17.414062 15.910156 16.332031 17 15 17 Z M 15 17 " fill-opacity="1" fill-rule="nonzero"/></svg>