<svg xmlns="http://www.w3.org/2000/svg" xmlns:xlink="http://www.w3.org/1999/xlink" width="40" zoomAndPan="magnify" viewBox="0 0 30 30.000001" height="40" preserveAspectRatio="xMidYMid meet" version="1.0"><defs><clipPath id="0409722e07"><path d="M 0.484375 9 L 29.515625 9 L 29.515625 20 L 0.484375 20 Z M 0.484375 9 " clip-rule="nonzero"/></clipPath><clipPath id="6285363d80"><path d="M 11 17 L 19 17 L 19 29.03125 L 11 29.03125 Z M 11 17 " clip-rule="nonzero"/></clipPath></defs><path fill="#f2b035" d="M 23.164062 18.144531 C 23.164062 13.636719 19.511719 9.980469 15 9.980469 C 10.488281 9.980469 6.835938 13.636719 6.835938 18.144531 Z M 23.164062 18.144531 " fill-opacity="1" fill-rule="nonzero"/><path fill="#1a1a1a" d="M 20.445312 20.867188 L 27.703125 20.867188 L 27.703125 22.679688 L 20.445312 22.679688 Z M 20.445312 20.867188 " fill-opacity="1" fill-rule="nonzero"/><path fill="#1a1a1a" d="M 2.296875 20.867188 L 9.554688 20.867188 L 9.554688 22.679688 L 2.296875 22.679688 Z M 2.296875 20.867188 " fill-opacity="1" fill-rule="nonzero"/><g clip-path="url(#0409722e07)"><path fill="#1a1a1a" d="M 24.027344 17.238281 C 23.570312 12.660156 19.695312 9.074219 15 9.074219 C 10.304688 9.074219 6.429688 12.660156 5.972656 17.238281 L 0.484375 17.238281 L 0.484375 19.050781 L 11.371094 19.050781 L 11.371094 17.238281 L 7.804688 17.238281 C 8.253906 13.664062 11.304688 10.886719 15 10.886719 C 18.695312 10.886719 21.746094 13.664062 22.195312 17.238281 L 18.628906 17.238281 L 18.628906 19.050781 L 29.515625 19.050781 L 29.515625 17.238281 Z M 24.027344 17.238281 " fill-opacity="1" fill-rule="nonzero"/></g><path fill="#1a1a1a" d="M 4.113281 24.496094 L 12.277344 24.496094 L 12.277344 26.308594 L 4.113281 26.308594 Z M 4.113281 24.496094 " fill-opacity="1" fill-rule="nonzero"/><path fill="#1a1a1a" d="M 17.722656 24.496094 L 25.886719 24.496094 L 25.886719 26.308594 L 17.722656 26.308594 Z M 17.722656 24.496094 " fill-opacity="1" fill-rule="nonzero"/><g clip-path="url(#6285363d80)"><path fill="#1a1a1a" d="M 18.363281 20.226562 L 15.640625 17.503906 C 15.285156 17.148438 14.714844 17.148438 14.359375 17.503906 L 11.636719 20.226562 L 12.917969 21.507812 L 14.09375 20.335938 L 14.09375 29.03125 L 15.90625 29.03125 L 15.90625 20.335938 L 17.082031 21.507812 Z M 18.363281 20.226562 " fill-opacity="1" fill-rule="nonzero"/></g><path fill="#1a1a1a" d="M 14.09375 0 L 15.90625 0 L 15.90625 1.816406 L 14.09375 1.816406 Z M 14.09375 0 " fill-opacity="1" fill-rule="nonzero"/><path fill="#1a1a1a" d="M 4.09375 8.519531 L 5.378906 7.238281 L 7.945312 9.804688 L 6.660156 11.085938 Z M 4.09375 8.519531 " fill-opacity="1" fill-rule="nonzero"/><path fill="#1a1a1a" d="M 1.285156 13.308594 L 1.992188 11.636719 L 5.332031 13.054688 L 4.625 14.726562 Z M 1.285156 13.308594 " fill-opacity="1" fill-rule="nonzero"/><path fill="#1a1a1a" d="M 1.527344 5.957031 L 2.8125 4.671875 L 4.09375 5.957031 L 2.8125 7.238281 Z M 1.527344 5.957031 " fill-opacity="1" fill-rule="nonzero"/><path fill="#1a1a1a" d="M 22.054688 9.804688 L 24.625 7.238281 L 25.90625 8.519531 L 23.339844 11.089844 Z M 22.054688 9.804688 " fill-opacity="1" fill-rule="nonzero"/><path fill="#1a1a1a" d="M 25.90625 5.957031 L 27.1875 4.671875 L 28.472656 5.957031 L 27.1875 7.238281 Z M 25.90625 5.957031 " fill-opacity="1" fill-rule="nonzero"/><path fill="#1a1a1a" d="M 14.09375 3.628906 L 15.90625 3.628906 L 15.90625 7.257812 L 14.09375 7.257812 Z M 14.09375 3.628906 " fill-opacity="1" fill-rule="nonzero"/><path fill="#1a1a1a" d="M 8.722656 5.027344 L 10.402344 4.347656 L 11.761719 7.710938 L 10.082031 8.390625 Z M 8.722656 5.027344 " fill-opacity="1" fill-rule="nonzero"/><path fill="#1a1a1a" d="M 24.664062 13.054688 L 28.007812 11.636719 L 28.714844 13.304688 L 25.375 14.726562 Z M 24.664062 13.054688 " fill-opacity="1" fill-rule="nonzero"/><path fill="#1a1a1a" d="M 18.238281 7.710938 L 19.597656 4.34375 L 21.277344 5.023438 L 19.917969 8.390625 Z M 18.238281 7.710938 " fill-opacity="1" fill-rule="nonzero"/></svg>