<svg xmlns="http://www.w3.org/2000/svg" xmlns:xlink="http://www.w3.org/1999/xlink" width="40" zoomAndPan="magnify" viewBox="0 0 30 30.000001" height="40" preserveAspectRatio="xMidYMid meet" version="1.0"><defs><clipPath id="c9da8fb8b2"><path d="M 11 6 L 29.515625 6 L 29.515625 18 L 11 18 Z M 11 6 " clip-rule="nonzero"/></clipPath><clipPath id="b74f0cf25b"><path d="M 1 10 L 28 10 L 28 26.78125 L 1 26.78125 Z M 1 10 " clip-rule="nonzero"/></clipPath><clipPath id="c4b423bb7e"><path d="M 22 2.105469 L 24 2.105469 L 24 3 L 22 3 Z M 22 2.105469 " clip-rule="nonzero"/></clipPath><clipPath id="6a33887600"><path d="M 0.484375 12 L 2 12 L 2 14 L 0.484375 14 Z M 0.484375 12 " clip-rule="nonzero"/></clipPath></defs><g clip-path="url(#c9da8fb8b2)"><path fill="#6b99d2" d="M 14.089844 12.726562 L 14.160156 12.726562 C 14.078125 12.460938 14.035156 12.1875 14.039062 11.90625 C 14.039062 11.367188 14.183594 10.867188 14.476562 10.414062 C 14.765625 9.957031 15.15625 9.613281 15.648438 9.382812 C 16.140625 9.152344 16.65625 9.074219 17.195312 9.140625 C 17.734375 9.210938 18.214844 9.417969 18.632812 9.761719 C 18.726562 9.324219 18.898438 8.921875 19.144531 8.546875 C 19.390625 8.175781 19.695312 7.855469 20.058594 7.597656 C 20.421875 7.335938 20.820312 7.148438 21.253906 7.035156 C 21.6875 6.921875 22.128906 6.886719 22.574219 6.9375 C 23.019531 6.984375 23.445312 7.109375 23.84375 7.316406 C 24.242188 7.519531 24.589844 7.789062 24.890625 8.121094 C 25.1875 8.453125 25.417969 8.828125 25.578125 9.246094 C 25.734375 9.664062 25.8125 10.097656 25.8125 10.542969 C 25.8125 10.773438 25.789062 11.003906 25.742188 11.226562 C 25.890625 11.207031 26.042969 11.199219 26.191406 11.195312 C 26.527344 11.195312 26.855469 11.25 27.171875 11.355469 C 27.488281 11.464844 27.78125 11.621094 28.046875 11.824219 C 28.3125 12.027344 28.535156 12.269531 28.722656 12.546875 C 28.90625 12.824219 29.042969 13.125 29.125 13.449219 C 29.210938 13.769531 29.238281 14.097656 29.214844 14.429688 C 29.191406 14.761719 29.109375 15.082031 28.980469 15.390625 C 28.847656 15.695312 28.667969 15.972656 28.441406 16.21875 C 28.21875 16.46875 27.960938 16.671875 27.667969 16.835938 C 27.289062 17.089844 26.871094 17.214844 26.414062 17.21875 L 14.089844 17.21875 C 13.789062 17.214844 13.503906 17.160156 13.226562 17.042969 C 12.953125 16.929688 12.707031 16.765625 12.496094 16.554688 C 12.285156 16.347656 12.125 16.105469 12.007812 15.828125 C 11.894531 15.554688 11.835938 15.269531 11.835938 14.972656 C 11.835938 14.675781 11.894531 14.390625 12.007812 14.113281 C 12.125 13.839844 12.285156 13.597656 12.496094 13.386719 C 12.707031 13.175781 12.953125 13.015625 13.226562 12.898438 C 13.503906 12.785156 13.789062 12.726562 14.089844 12.726562 Z M 14.089844 12.726562 " fill-opacity="1" fill-rule="nonzero"/></g><g clip-path="url(#b74f0cf25b)"><path fill="#26477a" d="M 24.40625 19.898438 L 24.308594 19.898438 C 24.433594 19.488281 24.496094 19.070312 24.496094 18.640625 C 24.496094 18.234375 24.441406 17.835938 24.324219 17.445312 C 24.210938 17.054688 24.046875 16.6875 23.824219 16.34375 C 23.605469 16 23.34375 15.695312 23.035156 15.425781 C 22.730469 15.15625 22.390625 14.9375 22.019531 14.765625 C 21.652344 14.59375 21.265625 14.472656 20.859375 14.410156 C 20.457031 14.347656 20.050781 14.34375 19.644531 14.394531 C 19.242188 14.445312 18.851562 14.554688 18.476562 14.714844 C 18.101562 14.878906 17.757812 15.089844 17.441406 15.347656 C 17.371094 15.019531 17.269531 14.695312 17.136719 14.382812 C 17.003906 14.070312 16.84375 13.773438 16.65625 13.488281 C 16.472656 13.203125 16.257812 12.941406 16.023438 12.695312 C 15.789062 12.449219 15.53125 12.230469 15.253906 12.03125 C 14.976562 11.832031 14.6875 11.660156 14.378906 11.515625 C 14.070312 11.371094 13.75 11.253906 13.421875 11.167969 C 13.089844 11.082031 12.753906 11.027344 12.414062 11 C 12.074219 10.976562 11.734375 10.980469 11.398438 11.019531 C 11.058594 11.054688 10.726562 11.121094 10.398438 11.21875 C 10.070312 11.316406 9.757812 11.445312 9.453125 11.601562 C 9.148438 11.753906 8.863281 11.9375 8.59375 12.144531 C 8.324219 12.351562 8.074219 12.582031 7.847656 12.835938 C 7.621094 13.085938 7.417969 13.359375 7.242188 13.648438 C 7.066406 13.9375 6.917969 14.242188 6.796875 14.558594 C 6.675781 14.875 6.582031 15.203125 6.523438 15.535156 C 6.460938 15.871094 6.433594 16.207031 6.433594 16.546875 C 6.433594 16.902344 6.46875 17.253906 6.535156 17.601562 C 6.304688 17.570312 6.078125 17.550781 5.84375 17.550781 C 5.332031 17.550781 4.832031 17.636719 4.34375 17.800781 C 3.859375 17.964844 3.414062 18.207031 3.007812 18.519531 C 2.601562 18.832031 2.253906 19.199219 1.972656 19.628906 C 1.6875 20.054688 1.484375 20.515625 1.355469 21.007812 C 1.226562 21.503906 1.179688 22.007812 1.21875 22.515625 C 1.257812 23.027344 1.375 23.515625 1.578125 23.984375 C 1.78125 24.457031 2.054688 24.878906 2.398438 25.261719 C 2.742188 25.640625 3.136719 25.953125 3.585938 26.203125 C 4.167969 26.589844 4.804688 26.78125 5.503906 26.78125 L 24.40625 26.78125 C 24.867188 26.78125 25.308594 26.695312 25.730469 26.519531 C 26.15625 26.34375 26.527344 26.09375 26.851562 25.773438 C 27.175781 25.449219 27.425781 25.078125 27.601562 24.65625 C 27.78125 24.234375 27.867188 23.796875 27.867188 23.339844 C 27.867188 22.882812 27.777344 22.445312 27.601562 22.023438 C 27.425781 21.605469 27.175781 21.234375 26.851562 20.910156 C 26.527344 20.589844 26.152344 20.339844 25.730469 20.164062 C 25.308594 19.988281 24.867188 19.902344 24.40625 19.898438 Z M 24.40625 19.898438 " fill-opacity="1" fill-rule="nonzero"/></g><path fill="#26477a" d="M 15.121094 5.34375 C 15.121094 5.4375 15.085938 5.515625 15.023438 5.582031 C 14.957031 5.644531 14.878906 5.679688 14.785156 5.679688 C 14.691406 5.679688 14.613281 5.644531 14.546875 5.582031 C 14.480469 5.515625 14.449219 5.4375 14.449219 5.34375 C 14.449219 5.253906 14.480469 5.175781 14.546875 5.109375 C 14.613281 5.042969 14.691406 5.011719 14.785156 5.011719 C 14.878906 5.011719 14.957031 5.042969 15.023438 5.109375 C 15.085938 5.175781 15.121094 5.253906 15.121094 5.34375 Z M 15.121094 5.34375 " fill-opacity="1" fill-rule="nonzero"/><g clip-path="url(#c4b423bb7e)"><path fill="#26477a" d="M 23.414062 2.4375 C 23.414062 2.53125 23.382812 2.609375 23.316406 2.675781 C 23.25 2.738281 23.171875 2.773438 23.078125 2.773438 C 22.988281 2.773438 22.90625 2.738281 22.84375 2.675781 C 22.777344 2.609375 22.742188 2.53125 22.742188 2.4375 C 22.742188 2.347656 22.777344 2.269531 22.84375 2.203125 C 22.90625 2.136719 22.988281 2.105469 23.078125 2.105469 C 23.171875 2.105469 23.25 2.136719 23.316406 2.203125 C 23.382812 2.269531 23.414062 2.347656 23.414062 2.4375 Z M 23.414062 2.4375 " fill-opacity="1" fill-rule="nonzero"/></g><path fill="#26477a" d="M 6.425781 3.414062 C 6.425781 3.503906 6.394531 3.585938 6.328125 3.648438 C 6.261719 3.714844 6.183594 3.746094 6.09375 3.746094 C 6 3.746094 5.921875 3.714844 5.855469 3.648438 C 5.789062 3.585938 5.757812 3.503906 5.757812 3.414062 C 5.757812 3.320312 5.789062 3.242188 5.855469 3.179688 C 5.921875 3.113281 6 3.082031 6.09375 3.082031 C 6.183594 3.082031 6.261719 3.113281 6.328125 3.179688 C 6.394531 3.242188 6.425781 3.320312 6.425781 3.414062 Z M 6.425781 3.414062 " fill-opacity="1" fill-rule="nonzero"/><path fill="#26477a" d="M 27.867188 8.820312 C 27.867188 8.910156 27.835938 8.988281 27.769531 9.054688 C 27.703125 9.121094 27.625 9.152344 27.535156 9.152344 C 27.441406 9.152344 27.363281 9.121094 27.296875 9.054688 C 27.230469 8.988281 27.199219 8.910156 27.199219 8.820312 C 27.199219 8.726562 27.230469 8.648438 27.296875 8.582031 C 27.363281 8.515625 27.441406 8.484375 27.535156 8.484375 C 27.625 8.484375 27.703125 8.515625 27.769531 8.582031 C 27.835938 8.648438 27.867188 8.726562 27.867188 8.820312 Z M 27.867188 8.820312 " fill-opacity="1" fill-rule="nonzero"/><g clip-path="url(#6a33887600)"><path fill="#26477a" d="M 1.195312 13.160156 C 1.195312 13.253906 1.164062 13.332031 1.097656 13.394531 C 1.03125 13.460938 0.953125 13.492188 0.859375 13.492188 C 0.765625 13.492188 0.6875 13.460938 0.621094 13.394531 C 0.558594 13.332031 0.523438 13.253906 0.523438 13.160156 C 0.523438 13.066406 0.558594 12.988281 0.621094 12.925781 C 0.6875 12.859375 0.765625 12.828125 0.859375 12.828125 C 0.953125 12.828125 1.03125 12.859375 1.097656 12.925781 C 1.164062 12.988281 1.195312 13.066406 1.195312 13.160156 Z M 1.195312 13.160156 " fill-opacity="1" fill-rule="nonzero"/></g><path fill="#ffb544" d="M 14.328125 17.464844 C 14.023438 17.699219 13.699219 17.90625 13.359375 18.085938 C 13.015625 18.265625 12.660156 18.414062 12.292969 18.53125 C 11.921875 18.648438 11.546875 18.734375 11.164062 18.785156 C 10.78125 18.839844 10.394531 18.855469 10.007812 18.84375 C 9.621094 18.828125 9.242188 18.777344 8.863281 18.699219 C 8.484375 18.617188 8.117188 18.503906 7.757812 18.355469 C 7.398438 18.210938 7.058594 18.035156 6.730469 17.832031 C 6.402344 17.625 6.097656 17.394531 5.808594 17.136719 C 5.523438 16.875 5.261719 16.59375 5.023438 16.292969 C 4.789062 15.988281 4.578125 15.664062 4.398438 15.324219 C 4.21875 14.984375 4.070312 14.628906 3.953125 14.265625 C 3.835938 13.898438 3.75 13.523438 3.695312 13.144531 C 3.644531 12.761719 3.625 12.378906 3.640625 11.996094 C 3.65625 11.609375 3.703125 11.230469 3.785156 10.855469 C 3.867188 10.476562 3.984375 10.113281 4.128906 9.757812 C 4.277344 9.398438 4.453125 9.058594 4.660156 8.734375 C 4.867188 8.410156 5.097656 8.105469 5.359375 7.820312 C 5.617188 7.535156 5.902344 7.273438 6.207031 7.039062 C 6.511719 6.804688 6.835938 6.59375 7.179688 6.417969 C 7.523438 6.238281 7.878906 6.089844 8.246094 5.972656 C 8.613281 5.855469 8.992188 5.769531 9.375 5.71875 C 9.757812 5.667969 10.140625 5.648438 10.527344 5.664062 C 10.914062 5.679688 11.296875 5.726562 11.675781 5.808594 C 12.054688 5.890625 12.421875 6.003906 12.78125 6.152344 C 12.394531 6.1875 12.015625 6.261719 11.648438 6.375 C 11.277344 6.488281 10.921875 6.636719 10.582031 6.820312 C 10.246094 7.003906 9.925781 7.21875 9.632812 7.46875 C 9.335938 7.714844 9.066406 7.988281 8.828125 8.292969 C 8.585938 8.59375 8.378906 8.914062 8.207031 9.257812 C 8.03125 9.601562 7.894531 9.957031 7.792969 10.328125 C 7.6875 10.699219 7.625 11.078125 7.601562 11.460938 C 7.574219 11.84375 7.585938 12.226562 7.640625 12.609375 C 7.691406 12.988281 7.78125 13.363281 7.910156 13.722656 C 8.039062 14.085938 8.199219 14.433594 8.398438 14.765625 C 8.597656 15.09375 8.824219 15.402344 9.085938 15.6875 C 9.347656 15.96875 9.632812 16.226562 9.945312 16.453125 C 10.257812 16.679688 10.589844 16.871094 10.941406 17.03125 C 11.292969 17.191406 11.65625 17.316406 12.035156 17.402344 C 12.410156 17.488281 12.792969 17.539062 13.179688 17.546875 C 13.566406 17.558594 13.949219 17.53125 14.328125 17.464844 Z M 14.328125 17.464844 " fill-opacity="1" fill-rule="nonzero"/></svg>