<svg xmlns="http://www.w3.org/2000/svg" xmlns:xlink="http://www.w3.org/1999/xlink" width="40" zoomAndPan="magnify" viewBox="0 0 30 30.000001" height="40" preserveAspectRatio="xMidYMid meet" version="1.0"><defs><clipPath id="e77cc9ab5b"><path d="M 11 3 L 29.515625 3 L 29.515625 15 L 11 15 Z M 11 3 " clip-rule="nonzero"/></clipPath><clipPath id="116efdd76b"><path d="M 0.484375 7 L 29 7 L 29 24.460938 L 0.484375 24.460938 Z M 0.484375 7 " clip-rule="nonzero"/></clipPath><clipPath id="606d9f354b"><path d="M 0.484375 9 L 1 9 L 1 11 L 0.484375 11 Z M 0.484375 9 " clip-rule="nonzero"/></clipPath><clipPath id="140c866f2b"><path d="M 11 21 L 14 21 L 14 24 L 11 24 Z M 11 21 " clip-rule="nonzero"/></clipPath><clipPath id="d43ab8795f"><path d="M 8.414062 13.050781 L 22.019531 19.917969 L 16.132812 31.582031 L 2.523438 24.710938 Z M 8.414062 13.050781 " clip-rule="nonzero"/></clipPath><clipPath id="3bf6a1e8e4"><path d="M 8.414062 13.050781 L 22.019531 19.917969 L 16.132812 31.582031 L 2.523438 24.710938 Z M 8.414062 13.050781 " clip-rule="nonzero"/></clipPath><clipPath id="3e004ab0d8"><path d="M 8.414062 13.050781 L 22.019531 19.917969 L 16.132812 31.582031 L 2.523438 24.710938 Z M 8.414062 13.050781 " clip-rule="nonzero"/></clipPath><clipPath id="7078be9def"><path d="M 13 27 L 15 27 L 15 29.03125 L 13 29.03125 Z M 13 27 " clip-rule="nonzero"/></clipPath><clipPath id="522218accb"><path d="M 8.414062 13.050781 L 22.019531 19.917969 L 16.132812 31.582031 L 2.523438 24.710938 Z M 8.414062 13.050781 " clip-rule="nonzero"/></clipPath><clipPath id="443ac975a0"><path d="M 8.414062 13.050781 L 22.019531 19.917969 L 16.132812 31.582031 L 2.523438 24.710938 Z M 8.414062 13.050781 " clip-rule="nonzero"/></clipPath><clipPath id="d9eec3e8a5"><path d="M 8.414062 13.050781 L 22.019531 19.917969 L 16.132812 31.582031 L 2.523438 24.710938 Z M 8.414062 13.050781 " clip-rule="nonzero"/></clipPath><clipPath id="3382ce67df"><path d="M 11 17 L 14 17 L 14 21 L 11 21 Z M 11 17 " clip-rule="nonzero"/></clipPath><clipPath id="97f3159aee"><path d="M 8.414062 13.050781 L 22.019531 19.917969 L 16.132812 31.582031 L 2.523438 24.710938 Z M 8.414062 13.050781 " clip-rule="nonzero"/></clipPath><clipPath id="520f4131ac"><path d="M 8.414062 13.050781 L 22.019531 19.917969 L 16.132812 31.582031 L 2.523438 24.710938 Z M 8.414062 13.050781 " clip-rule="nonzero"/></clipPath><clipPath id="9f1ff34601"><path d="M 8.414062 13.050781 L 22.019531 19.917969 L 16.132812 31.582031 L 2.523438 24.710938 Z M 8.414062 13.050781 " clip-rule="nonzero"/></clipPath><clipPath id="6f5b08c5c5"><path d="M 12 24 L 15 24 L 15 27 L 12 27 Z M 12 24 " clip-rule="nonzero"/></clipPath><clipPath id="53f0f791ee"><path d="M 8.414062 13.050781 L 22.019531 19.917969 L 16.132812 31.582031 L 2.523438 24.710938 Z M 8.414062 13.050781 " clip-rule="nonzero"/></clipPath><clipPath id="5a2d1d1071"><path d="M 8.414062 13.050781 L 22.019531 19.917969 L 16.132812 31.582031 L 2.523438 24.710938 Z M 8.414062 13.050781 " clip-rule="nonzero"/></clipPath><clipPath id="bc08209189"><path d="M 8.414062 13.050781 L 22.019531 19.917969 L 16.132812 31.582031 L 2.523438 24.710938 Z M 8.414062 13.050781 " clip-rule="nonzero"/></clipPath><clipPath id="b326354180"><path d="M 6 22 L 8 22 L 8 26 L 6 26 Z M 6 22 " clip-rule="nonzero"/></clipPath><clipPath id="63cc3a0137"><path d="M 8.414062 13.050781 L 22.019531 19.917969 L 16.132812 31.582031 L 2.523438 24.710938 Z M 8.414062 13.050781 " clip-rule="nonzero"/></clipPath><clipPath id="5506de1a80"><path d="M 8.414062 13.050781 L 22.019531 19.917969 L 16.132812 31.582031 L 2.523438 24.710938 Z M 8.414062 13.050781 " clip-rule="nonzero"/></clipPath><clipPath id="3de23d02f5"><path d="M 8.414062 13.050781 L 22.019531 19.917969 L 16.132812 31.582031 L 2.523438 24.710938 Z M 8.414062 13.050781 " clip-rule="nonzero"/></clipPath><clipPath id="723f49b3dc"><path d="M 18 19 L 21 19 L 21 22 L 18 22 Z M 18 19 " clip-rule="nonzero"/></clipPath><clipPath id="822d62e3c8"><path d="M 8.414062 13.050781 L 22.019531 19.917969 L 16.132812 31.582031 L 2.523438 24.710938 Z M 8.414062 13.050781 " clip-rule="nonzero"/></clipPath><clipPath id="dfa76c547b"><path d="M 8.414062 13.050781 L 22.019531 19.917969 L 16.132812 31.582031 L 2.523438 24.710938 Z M 8.414062 13.050781 " clip-rule="nonzero"/></clipPath><clipPath id="9359112b30"><path d="M 8.414062 13.050781 L 22.019531 19.917969 L 16.132812 31.582031 L 2.523438 24.710938 Z M 8.414062 13.050781 " clip-rule="nonzero"/></clipPath><clipPath id="0ef64abbc0"><path d="M 9 18 L 11 18 L 11 22 L 9 22 Z M 9 18 " clip-rule="nonzero"/></clipPath><clipPath id="74ed6a0e11"><path d="M 8.414062 13.050781 L 22.019531 19.917969 L 16.132812 31.582031 L 2.523438 24.710938 Z M 8.414062 13.050781 " clip-rule="nonzero"/></clipPath><clipPath id="1361aaaa0b"><path d="M 8.414062 13.050781 L 22.019531 19.917969 L 16.132812 31.582031 L 2.523438 24.710938 Z M 8.414062 13.050781 " clip-rule="nonzero"/></clipPath><clipPath id="299d19b4ac"><path d="M 8.414062 13.050781 L 22.019531 19.917969 L 16.132812 31.582031 L 2.523438 24.710938 Z M 8.414062 13.050781 " clip-rule="nonzero"/></clipPath><clipPath id="a050338652"><path d="M 2 22 L 5 22 L 5 26 L 2 26 Z M 2 22 " clip-rule="nonzero"/></clipPath><clipPath id="a429a5c779"><path d="M 8.414062 13.050781 L 22.019531 19.917969 L 16.132812 31.582031 L 2.523438 24.710938 Z M 8.414062 13.050781 " clip-rule="nonzero"/></clipPath><clipPath id="ea429b3646"><path d="M 8.414062 13.050781 L 22.019531 19.917969 L 16.132812 31.582031 L 2.523438 24.710938 Z M 8.414062 13.050781 " clip-rule="nonzero"/></clipPath><clipPath id="b6de1ac982"><path d="M 8.414062 13.050781 L 22.019531 19.917969 L 16.132812 31.582031 L 2.523438 24.710938 Z M 8.414062 13.050781 " clip-rule="nonzero"/></clipPath><clipPath id="b59876bd78"><path d="M 15 19 L 18 19 L 18 22 L 15 22 Z M 15 19 " clip-rule="nonzero"/></clipPath><clipPath id="57dbebd00f"><path d="M 8.414062 13.050781 L 22.019531 19.917969 L 16.132812 31.582031 L 2.523438 24.710938 Z M 8.414062 13.050781 " clip-rule="nonzero"/></clipPath><clipPath id="fa3cdd2f61"><path d="M 8.414062 13.050781 L 22.019531 19.917969 L 16.132812 31.582031 L 2.523438 24.710938 Z M 8.414062 13.050781 " clip-rule="nonzero"/></clipPath><clipPath id="7e7851a756"><path d="M 8.414062 13.050781 L 22.019531 19.917969 L 16.132812 31.582031 L 2.523438 24.710938 Z M 8.414062 13.050781 " clip-rule="nonzero"/></clipPath><clipPath id="ba43b45898"><path d="M 16 25 L 19 25 L 19 29 L 16 29 Z M 16 25 " clip-rule="nonzero"/></clipPath><clipPath id="4a2466b660"><path d="M 8.414062 13.050781 L 22.019531 19.917969 L 16.132812 31.582031 L 2.523438 24.710938 Z M 8.414062 13.050781 " clip-rule="nonzero"/></clipPath><clipPath id="9198c3819d"><path d="M 8.414062 13.050781 L 22.019531 19.917969 L 16.132812 31.582031 L 2.523438 24.710938 Z M 8.414062 13.050781 " clip-rule="nonzero"/></clipPath><clipPath id="38fabb0118"><path d="M 8.414062 13.050781 L 22.019531 19.917969 L 16.132812 31.582031 L 2.523438 24.710938 Z M 8.414062 13.050781 " clip-rule="nonzero"/></clipPath></defs><g clip-path="url(#e77cc9ab5b)"><path fill="#6b99d2" d="M 14.011719 9.578125 L 14.085938 9.578125 C 14 9.296875 13.957031 9.007812 13.957031 8.710938 C 13.957031 8.140625 14.109375 7.613281 14.417969 7.128906 C 14.722656 6.644531 15.132812 6.28125 15.648438 6.039062 C 16.167969 5.796875 16.707031 5.710938 17.273438 5.78125 C 17.839844 5.855469 18.34375 6.074219 18.78125 6.441406 C 18.882812 5.976562 19.0625 5.550781 19.320312 5.152344 C 19.578125 4.757812 19.898438 4.421875 20.28125 4.144531 C 20.664062 3.871094 21.082031 3.671875 21.535156 3.550781 C 21.992188 3.429688 22.453125 3.394531 22.921875 3.449219 C 23.390625 3.5 23.835938 3.632812 24.253906 3.847656 C 24.675781 4.066406 25.039062 4.351562 25.355469 4.703125 C 25.667969 5.054688 25.910156 5.453125 26.074219 5.894531 C 26.242188 6.335938 26.324219 6.792969 26.324219 7.265625 C 26.324219 7.511719 26.296875 7.753906 26.25 7.992188 C 26.40625 7.972656 26.5625 7.960938 26.722656 7.957031 C 27.074219 7.957031 27.417969 8.015625 27.75 8.128906 C 28.082031 8.242188 28.390625 8.40625 28.667969 8.621094 C 28.949219 8.835938 29.183594 9.09375 29.378906 9.386719 C 29.574219 9.683594 29.714844 10 29.804688 10.339844 C 29.890625 10.683594 29.921875 11.03125 29.894531 11.382812 C 29.871094 11.734375 29.785156 12.074219 29.648438 12.398438 C 29.507812 12.722656 29.320312 13.015625 29.085938 13.277344 C 28.851562 13.539062 28.578125 13.757812 28.269531 13.929688 C 27.871094 14.195312 27.433594 14.332031 26.953125 14.335938 L 14.011719 14.335938 C 13.699219 14.332031 13.394531 14.269531 13.105469 14.148438 C 12.816406 14.027344 12.5625 13.855469 12.339844 13.632812 C 12.117188 13.410156 11.949219 13.152344 11.828125 12.863281 C 11.707031 12.574219 11.648438 12.269531 11.644531 11.957031 C 11.648438 11.640625 11.707031 11.339844 11.828125 11.046875 C 11.949219 10.757812 12.117188 10.5 12.339844 10.277344 C 12.5625 10.054688 12.816406 9.882812 13.105469 9.761719 C 13.394531 9.640625 13.699219 9.578125 14.011719 9.578125 Z M 14.011719 9.578125 " fill-opacity="1" fill-rule="nonzero"/></g><g clip-path="url(#116efdd76b)"><path fill="#26477a" d="M 24.847656 17.171875 L 24.742188 17.171875 C 24.875 16.738281 24.941406 16.292969 24.941406 15.839844 C 24.941406 15.410156 24.882812 14.988281 24.761719 14.574219 C 24.640625 14.160156 24.46875 13.773438 24.238281 13.410156 C 24.007812 13.046875 23.730469 12.722656 23.40625 12.4375 C 23.085938 12.152344 22.730469 11.917969 22.339844 11.738281 C 21.953125 11.554688 21.546875 11.429688 21.121094 11.363281 C 20.699219 11.296875 20.273438 11.289062 19.847656 11.34375 C 19.421875 11.398438 19.011719 11.511719 18.617188 11.683594 C 18.226562 11.855469 17.863281 12.082031 17.53125 12.355469 C 17.457031 12.003906 17.351562 11.664062 17.210938 11.332031 C 17.074219 11 16.90625 10.683594 16.710938 10.386719 C 16.511719 10.085938 16.292969 9.804688 16.042969 9.546875 C 15.796875 9.285156 15.527344 9.050781 15.234375 8.839844 C 14.945312 8.632812 14.636719 8.449219 14.316406 8.296875 C 13.992188 8.144531 13.65625 8.019531 13.308594 7.929688 C 12.964844 7.835938 12.609375 7.777344 12.253906 7.75 C 11.898438 7.726562 11.539062 7.730469 11.183594 7.769531 C 10.828125 7.808594 10.480469 7.878906 10.136719 7.984375 C 9.792969 8.085938 9.460938 8.222656 9.144531 8.386719 C 8.824219 8.550781 8.523438 8.742188 8.242188 8.960938 C 7.957031 9.179688 7.695312 9.425781 7.457031 9.691406 C 7.21875 9.960938 7.007812 10.25 6.820312 10.554688 C 6.636719 10.863281 6.480469 11.183594 6.351562 11.519531 C 6.226562 11.855469 6.128906 12.199219 6.066406 12.554688 C 6.003906 12.90625 5.972656 13.261719 5.972656 13.621094 C 5.972656 13.996094 6.007812 14.371094 6.078125 14.742188 C 5.839844 14.707031 5.597656 14.6875 5.355469 14.6875 C 4.816406 14.6875 4.289062 14.777344 3.777344 14.949219 C 3.269531 15.125 2.800781 15.378906 2.371094 15.710938 C 1.945312 16.042969 1.585938 16.433594 1.289062 16.886719 C 0.988281 17.335938 0.773438 17.824219 0.636719 18.347656 C 0.503906 18.871094 0.453125 19.402344 0.496094 19.945312 C 0.535156 20.484375 0.660156 21.003906 0.875 21.5 C 1.085938 21.996094 1.371094 22.445312 1.734375 22.847656 C 2.09375 23.25 2.511719 23.585938 2.984375 23.847656 C 3.589844 24.257812 4.261719 24.460938 4.996094 24.460938 L 24.847656 24.460938 C 25.328125 24.460938 25.792969 24.367188 26.238281 24.183594 C 26.683594 23.996094 27.074219 23.734375 27.414062 23.390625 C 27.757812 23.050781 28.019531 22.65625 28.203125 22.210938 C 28.386719 21.765625 28.480469 21.300781 28.480469 20.816406 C 28.480469 20.335938 28.386719 19.871094 28.203125 19.425781 C 28.015625 18.980469 27.753906 18.585938 27.414062 18.242188 C 27.074219 17.902344 26.679688 17.640625 26.238281 17.453125 C 25.792969 17.269531 25.328125 17.175781 24.847656 17.171875 Z M 24.847656 17.171875 " fill-opacity="1" fill-rule="nonzero"/></g><path fill="#26477a" d="M 15.09375 1.761719 C 15.09375 1.859375 15.058594 1.945312 14.992188 2.011719 C 14.921875 2.082031 14.839844 2.117188 14.742188 2.117188 C 14.644531 2.117188 14.5625 2.082031 14.492188 2.011719 C 14.425781 1.945312 14.390625 1.859375 14.390625 1.761719 C 14.390625 1.664062 14.425781 1.582031 14.492188 1.511719 C 14.5625 1.445312 14.644531 1.410156 14.742188 1.410156 C 14.839844 1.410156 14.921875 1.445312 14.992188 1.511719 C 15.058594 1.582031 15.09375 1.664062 15.09375 1.761719 Z M 15.09375 1.761719 " fill-opacity="1" fill-rule="nonzero"/><path fill="#26477a" d="M 5.964844 -0.28125 C 5.964844 -0.183594 5.929688 -0.101562 5.863281 -0.03125 C 5.792969 0.0351562 5.710938 0.0703125 5.613281 0.0703125 C 5.515625 0.0703125 5.433594 0.0351562 5.363281 -0.03125 C 5.296875 -0.101562 5.261719 -0.183594 5.261719 -0.28125 C 5.261719 -0.378906 5.296875 -0.464844 5.363281 -0.53125 C 5.433594 -0.601562 5.515625 -0.636719 5.613281 -0.636719 C 5.710938 -0.636719 5.792969 -0.601562 5.863281 -0.53125 C 5.929688 -0.464844 5.964844 -0.378906 5.964844 -0.28125 Z M 5.964844 -0.28125 " fill-opacity="1" fill-rule="nonzero"/><path fill="#26477a" d="M 28.480469 5.441406 C 28.480469 5.539062 28.449219 5.621094 28.378906 5.691406 C 28.308594 5.757812 28.226562 5.792969 28.128906 5.792969 C 28.03125 5.792969 27.949219 5.757812 27.882812 5.691406 C 27.8125 5.621094 27.777344 5.539062 27.777344 5.441406 C 27.777344 5.34375 27.8125 5.257812 27.882812 5.191406 C 27.949219 5.121094 28.03125 5.085938 28.128906 5.085938 C 28.226562 5.085938 28.308594 5.121094 28.378906 5.191406 C 28.449219 5.257812 28.480469 5.34375 28.480469 5.441406 Z M 28.480469 5.441406 " fill-opacity="1" fill-rule="nonzero"/><g clip-path="url(#606d9f354b)"><path fill="#26477a" d="M 0.472656 10.039062 C 0.472656 10.136719 0.4375 10.21875 0.367188 10.285156 C 0.300781 10.355469 0.214844 10.390625 0.117188 10.390625 C 0.0234375 10.390625 -0.0625 10.355469 -0.128906 10.285156 C -0.199219 10.21875 -0.234375 10.136719 -0.234375 10.039062 C -0.234375 9.941406 -0.199219 9.855469 -0.128906 9.789062 C -0.0625 9.71875 0.0234375 9.683594 0.117188 9.683594 C 0.214844 9.683594 0.300781 9.71875 0.367188 9.789062 C 0.4375 9.855469 0.472656 9.941406 0.472656 10.039062 Z M 0.472656 10.039062 " fill-opacity="1" fill-rule="nonzero"/></g><path fill="#ffb544" d="M 14.265625 14.59375 C 13.941406 14.84375 13.601562 15.0625 13.242188 15.253906 C 12.882812 15.445312 12.511719 15.601562 12.125 15.726562 C 11.738281 15.847656 11.34375 15.9375 10.941406 15.996094 C 10.539062 16.050781 10.132812 16.070312 9.726562 16.054688 C 9.320312 16.039062 8.921875 15.988281 8.523438 15.902344 C 8.125 15.8125 7.738281 15.695312 7.363281 15.539062 C 6.988281 15.386719 6.628906 15.199219 6.285156 14.984375 C 5.941406 14.765625 5.617188 14.519531 5.316406 14.246094 C 5.015625 13.972656 4.742188 13.675781 4.492188 13.351562 C 4.246094 13.03125 4.023438 12.691406 3.835938 12.328125 C 3.648438 11.96875 3.488281 11.59375 3.367188 11.207031 C 3.242188 10.820312 3.152344 10.421875 3.097656 10.019531 C 3.042969 9.617188 3.023438 9.210938 3.039062 8.804688 C 3.054688 8.394531 3.105469 7.992188 3.191406 7.597656 C 3.277344 7.199219 3.398438 6.808594 3.550781 6.433594 C 3.707031 6.054688 3.890625 5.695312 4.109375 5.351562 C 4.324219 5.007812 4.570312 4.683594 4.84375 4.382812 C 5.117188 4.082031 5.414062 3.804688 5.734375 3.554688 C 6.054688 3.304688 6.398438 3.085938 6.757812 2.898438 C 7.117188 2.707031 7.488281 2.550781 7.875 2.425781 C 8.261719 2.300781 8.65625 2.214844 9.058594 2.160156 C 9.460938 2.101562 9.867188 2.085938 10.273438 2.101562 C 10.679688 2.117188 11.078125 2.167969 11.476562 2.253906 C 11.875 2.339844 12.261719 2.460938 12.636719 2.617188 C 12.230469 2.65625 11.835938 2.734375 11.449219 2.855469 C 11.058594 2.972656 10.6875 3.128906 10.332031 3.324219 C 9.972656 3.519531 9.640625 3.75 9.328125 4.011719 C 9.019531 4.273438 8.738281 4.5625 8.484375 4.882812 C 8.234375 5.203125 8.015625 5.542969 7.832031 5.90625 C 7.648438 6.269531 7.503906 6.648438 7.398438 7.039062 C 7.289062 7.433594 7.222656 7.832031 7.195312 8.238281 C 7.171875 8.644531 7.183594 9.050781 7.238281 9.453125 C 7.292969 9.855469 7.386719 10.25 7.523438 10.636719 C 7.65625 11.019531 7.828125 11.386719 8.035156 11.734375 C 8.242188 12.085938 8.484375 12.410156 8.757812 12.710938 C 9.03125 13.011719 9.332031 13.285156 9.660156 13.523438 C 9.988281 13.761719 10.335938 13.96875 10.707031 14.136719 C 11.074219 14.308594 11.457031 14.4375 11.851562 14.53125 C 12.25 14.621094 12.648438 14.671875 13.054688 14.683594 C 13.460938 14.695312 13.863281 14.664062 14.265625 14.59375 Z M 14.265625 14.59375 " fill-opacity="1" fill-rule="nonzero"/><g clip-path="url(#140c866f2b)"><g clip-path="url(#d43ab8795f)"><g clip-path="url(#3bf6a1e8e4)"><g clip-path="url(#3e004ab0d8)"><path fill="#66afdc" d="M 13.675781 21.140625 C 13.675781 21.140625 12.355469 22.171875 12.0625 22.753906 C 11.878906 23.117188 12.015625 23.554688 12.367188 23.730469 C 12.71875 23.910156 13.15625 23.761719 13.335938 23.398438 C 13.628906 22.816406 13.675781 21.140625 13.675781 21.140625 Z M 13.675781 21.140625 " fill-opacity="1" fill-rule="evenodd"/></g></g></g></g><g clip-path="url(#7078be9def)"><g clip-path="url(#522218accb)"><g clip-path="url(#443ac975a0)"><g clip-path="url(#d9eec3e8a5)"><path fill="#66afdc" d="M 14.933594 27.601562 C 14.933594 27.601562 13.613281 28.636719 13.320312 29.214844 C 13.136719 29.578125 13.273438 30.015625 13.625 30.195312 C 13.980469 30.371094 14.414062 30.222656 14.597656 29.859375 C 14.890625 29.277344 14.933594 27.601562 14.933594 27.601562 Z M 14.933594 27.601562 " fill-opacity="1" fill-rule="evenodd"/></g></g></g></g><g clip-path="url(#3382ce67df)"><g clip-path="url(#97f3159aee)"><g clip-path="url(#520f4131ac)"><g clip-path="url(#9f1ff34601)"><path fill="#66afdc" d="M 13.070312 17.582031 C 13.070312 17.582031 11.75 18.617188 11.457031 19.195312 C 11.273438 19.558594 11.410156 19.996094 11.761719 20.175781 C 12.113281 20.351562 12.546875 20.203125 12.730469 19.839844 C 13.023438 19.257812 13.070312 17.582031 13.070312 17.582031 Z M 13.070312 17.582031 " fill-opacity="1" fill-rule="evenodd"/></g></g></g></g><g clip-path="url(#6f5b08c5c5)"><g clip-path="url(#53f0f791ee)"><g clip-path="url(#5a2d1d1071)"><g clip-path="url(#bc08209189)"><path fill="#66afdc" d="M 14.328125 24.042969 C 14.328125 24.042969 13.007812 25.078125 12.714844 25.65625 C 12.53125 26.019531 12.667969 26.457031 13.019531 26.636719 C 13.371094 26.8125 13.808594 26.664062 13.988281 26.300781 C 14.28125 25.722656 14.328125 24.042969 14.328125 24.042969 Z M 14.328125 24.042969 " fill-opacity="1" fill-rule="evenodd"/></g></g></g></g><g clip-path="url(#b326354180)"><g clip-path="url(#63cc3a0137)"><g clip-path="url(#5506de1a80)"><g clip-path="url(#3de23d02f5)"><path fill="#66afdc" d="M 7.914062 22.554688 C 7.914062 22.554688 6.589844 23.585938 6.296875 24.167969 C 6.117188 24.527344 6.253906 24.96875 6.605469 25.144531 C 6.957031 25.324219 7.390625 25.171875 7.574219 24.8125 C 7.867188 24.230469 7.914062 22.554688 7.914062 22.554688 Z M 7.914062 22.554688 " fill-opacity="1" fill-rule="evenodd"/></g></g></g></g><g clip-path="url(#723f49b3dc)"><g clip-path="url(#822d62e3c8)"><g clip-path="url(#dfa76c547b)"><g clip-path="url(#9359112b30)"><path fill="#66afdc" d="M 20.5625 19.183594 C 20.5625 19.183594 19.242188 20.214844 18.945312 20.796875 C 18.765625 21.160156 18.902344 21.597656 19.253906 21.773438 C 19.605469 21.953125 20.039062 21.800781 20.222656 21.441406 C 20.515625 20.859375 20.5625 19.183594 20.5625 19.183594 Z M 20.5625 19.183594 " fill-opacity="1" fill-rule="evenodd"/></g></g></g></g><g clip-path="url(#0ef64abbc0)"><g clip-path="url(#74ed6a0e11)"><g clip-path="url(#1361aaaa0b)"><g clip-path="url(#299d19b4ac)"><path fill="#66afdc" d="M 10.742188 18.980469 C 10.742188 18.980469 9.417969 20.015625 9.125 20.59375 C 8.945312 20.957031 9.082031 21.394531 9.433594 21.574219 C 9.785156 21.75 10.21875 21.601562 10.402344 21.238281 C 10.695312 20.660156 10.742188 18.980469 10.742188 18.980469 Z M 10.742188 18.980469 " fill-opacity="1" fill-rule="evenodd"/></g></g></g></g><g clip-path="url(#a050338652)"><g clip-path="url(#a429a5c779)"><g clip-path="url(#ea429b3646)"><g clip-path="url(#b6de1ac982)"><path fill="#66afdc" d="M 4.472656 22.441406 C 4.472656 22.441406 3.152344 23.476562 2.859375 24.054688 C 2.675781 24.417969 2.8125 24.855469 3.164062 25.035156 C 3.519531 25.210938 3.953125 25.0625 4.136719 24.699219 C 4.429688 24.121094 4.472656 22.441406 4.472656 22.441406 Z M 4.472656 22.441406 " fill-opacity="1" fill-rule="evenodd"/></g></g></g></g><g clip-path="url(#b59876bd78)"><g clip-path="url(#57dbebd00f)"><g clip-path="url(#fa3cdd2f61)"><g clip-path="url(#7e7851a756)"><path fill="#66afdc" d="M 17.121094 19.074219 C 17.121094 19.074219 15.800781 20.105469 15.507812 20.6875 C 15.324219 21.046875 15.460938 21.488281 15.816406 21.664062 C 16.167969 21.84375 16.601562 21.691406 16.785156 21.328125 C 17.078125 20.75 17.121094 19.074219 17.121094 19.074219 Z M 17.121094 19.074219 " fill-opacity="1" fill-rule="evenodd"/></g></g></g></g><g clip-path="url(#ba43b45898)"><g clip-path="url(#4a2466b660)"><g clip-path="url(#9198c3819d)"><g clip-path="url(#38fabb0118)"><path fill="#66afdc" d="M 18.382812 25.535156 C 18.382812 25.535156 17.058594 26.566406 16.765625 27.148438 C 16.582031 27.507812 16.722656 27.949219 17.074219 28.125 C 17.425781 28.304688 17.859375 28.152344 18.042969 27.792969 C 18.335938 27.210938 18.382812 25.535156 18.382812 25.535156 Z M 18.382812 25.535156 " fill-opacity="1" fill-rule="evenodd"/></g></g></g></g></svg>