<svg xmlns="http://www.w3.org/2000/svg" xmlns:xlink="http://www.w3.org/1999/xlink" width="40" zoomAndPan="magnify" viewBox="0 0 30 30.000001" height="40" preserveAspectRatio="xMidYMid meet" version="1.0"><defs><clipPath id="c88ceb48b2"><path d="M 14 18 L 24 18 L 24 29 L 14 29 Z M 14 18 " clip-rule="nonzero"/></clipPath><clipPath id="35f50d17d8"><path d="M 18.507812 17.773438 L 24.894531 21.21875 L 19.382812 31.441406 L 12.996094 27.996094 Z M 18.507812 17.773438 " clip-rule="nonzero"/></clipPath><clipPath id="540557eb6e"><path d="M 18.507812 17.773438 L 24.894531 21.21875 L 19.382812 31.441406 L 12.996094 27.996094 Z M 18.507812 17.773438 " clip-rule="nonzero"/></clipPath><clipPath id="06f5962a45"><path d="M 18.507812 17.773438 L 24.894531 21.21875 L 19.382812 31.441406 L 12.996094 27.996094 Z M 18.507812 17.773438 " clip-rule="nonzero"/></clipPath><clipPath id="cdf6d15627"><path d="M 6 18 L 16 18 L 16 29 L 6 29 Z M 6 18 " clip-rule="nonzero"/></clipPath><clipPath id="00116d92a8"><path d="M 10.628906 17.773438 L 17.015625 21.21875 L 11.503906 31.441406 L 5.117188 27.996094 Z M 10.628906 17.773438 " clip-rule="nonzero"/></clipPath><clipPath id="7f8b7999d4"><path d="M 10.628906 17.773438 L 17.015625 21.21875 L 11.503906 31.441406 L 5.117188 27.996094 Z M 10.628906 17.773438 " clip-rule="nonzero"/></clipPath><clipPath id="2bf350e2fe"><path d="M 10.628906 17.773438 L 17.015625 21.21875 L 11.503906 31.441406 L 5.117188 27.996094 Z M 10.628906 17.773438 " clip-rule="nonzero"/></clipPath><clipPath id="b9d6ba8dad"><path d="M 12 5 L 26.871094 5 L 26.871094 15 L 12 15 Z M 12 5 " clip-rule="nonzero"/></clipPath><clipPath id="5df47255a8"><path d="M 3 8 L 26 8 L 26 21.945312 L 3 21.945312 Z M 3 8 " clip-rule="nonzero"/></clipPath><clipPath id="298400294f"><path d="M 21 1.625 L 22 1.625 L 22 3 L 21 3 Z M 21 1.625 " clip-rule="nonzero"/></clipPath><clipPath id="9bb2b2c445"><path d="M 2.917969 10 L 4 10 L 4 12 L 2.917969 12 Z M 2.917969 10 " clip-rule="nonzero"/></clipPath></defs><g clip-path="url(#c88ceb48b2)"><g clip-path="url(#35f50d17d8)"><g clip-path="url(#540557eb6e)"><g clip-path="url(#06f5962a45)"><path fill="#ffce01" d="M 19.707031 18.421875 L 23.433594 20.433594 L 19.296875 23.484375 L 22.691406 25.316406 L 14.328125 28.714844 L 17.882812 25.308594 L 15.222656 23.871094 Z M 19.707031 18.421875 " fill-opacity="1" fill-rule="nonzero"/></g></g></g></g><g clip-path="url(#cdf6d15627)"><g clip-path="url(#00116d92a8)"><g clip-path="url(#7f8b7999d4)"><g clip-path="url(#2bf350e2fe)"><path fill="#ffce01" d="M 11.828125 18.421875 L 15.554688 20.433594 L 11.414062 23.484375 L 14.808594 25.316406 L 6.445312 28.714844 L 10.003906 25.308594 L 7.34375 23.871094 Z M 11.828125 18.421875 " fill-opacity="1" fill-rule="nonzero"/></g></g></g></g><g clip-path="url(#b9d6ba8dad)"><path fill="#6b99d2" d="M 14.144531 10.371094 L 14.199219 10.371094 C 14.132812 10.152344 14.101562 9.925781 14.101562 9.699219 C 14.101562 9.253906 14.222656 8.84375 14.460938 8.464844 C 14.703125 8.089844 15.023438 7.808594 15.429688 7.617188 C 15.835938 7.429688 16.261719 7.363281 16.707031 7.417969 C 17.152344 7.476562 17.546875 7.644531 17.890625 7.929688 C 17.96875 7.570312 18.109375 7.238281 18.3125 6.929688 C 18.515625 6.621094 18.769531 6.363281 19.070312 6.148438 C 19.371094 5.933594 19.699219 5.777344 20.058594 5.683594 C 20.414062 5.589844 20.777344 5.5625 21.148438 5.601562 C 21.515625 5.644531 21.863281 5.746094 22.191406 5.914062 C 22.523438 6.082031 22.808594 6.304688 23.058594 6.578125 C 23.304688 6.851562 23.492188 7.164062 23.625 7.507812 C 23.753906 7.851562 23.820312 8.207031 23.816406 8.574219 C 23.816406 8.761719 23.796875 8.953125 23.761719 9.136719 C 23.882812 9.121094 24.007812 9.113281 24.132812 9.113281 C 24.40625 9.109375 24.675781 9.15625 24.941406 9.242188 C 25.203125 9.332031 25.441406 9.460938 25.660156 9.628906 C 25.878906 9.796875 26.066406 9.992188 26.21875 10.222656 C 26.371094 10.453125 26.484375 10.699219 26.550781 10.964844 C 26.621094 11.230469 26.648438 11.5 26.625 11.773438 C 26.605469 12.050781 26.539062 12.3125 26.429688 12.566406 C 26.320312 12.816406 26.175781 13.046875 25.988281 13.25 C 25.804688 13.453125 25.589844 13.621094 25.347656 13.753906 C 25.035156 13.964844 24.691406 14.070312 24.3125 14.070312 L 14.144531 14.070312 C 13.898438 14.070312 13.660156 14.019531 13.433594 13.925781 C 13.203125 13.832031 13.003906 13.699219 12.832031 13.527344 C 12.65625 13.351562 12.523438 13.152344 12.425781 12.925781 C 12.332031 12.699219 12.285156 12.464844 12.285156 12.222656 C 12.285156 11.976562 12.332031 11.742188 12.425781 11.515625 C 12.523438 11.289062 12.65625 11.089844 12.832031 10.917969 C 13.003906 10.742188 13.203125 10.609375 13.433594 10.515625 C 13.660156 10.421875 13.898438 10.371094 14.144531 10.371094 Z M 14.144531 10.371094 " fill-opacity="1" fill-rule="nonzero"/></g><g clip-path="url(#5df47255a8)"><path fill="#26477a" d="M 22.660156 16.277344 L 22.574219 16.277344 C 22.679688 15.941406 22.730469 15.59375 22.730469 15.242188 C 22.730469 14.558594 22.546875 13.929688 22.179688 13.351562 C 21.808594 12.773438 21.3125 12.339844 20.6875 12.050781 C 20.066406 11.757812 19.414062 11.65625 18.730469 11.746094 C 18.046875 11.832031 17.441406 12.09375 16.910156 12.53125 C 16.789062 11.980469 16.574219 11.46875 16.261719 11 C 15.953125 10.527344 15.566406 10.128906 15.105469 9.796875 C 14.644531 9.46875 14.140625 9.234375 13.589844 9.089844 C 13.042969 8.945312 12.484375 8.902344 11.921875 8.964844 C 11.355469 9.027344 10.824219 9.1875 10.316406 9.445312 C 9.8125 9.703125 9.371094 10.039062 8.992188 10.460938 C 8.617188 10.878906 8.324219 11.355469 8.125 11.882812 C 7.921875 12.40625 7.824219 12.953125 7.824219 13.515625 C 7.828125 13.808594 7.855469 14.097656 7.910156 14.386719 C 7.71875 14.359375 7.53125 14.347656 7.339844 14.34375 C 6.917969 14.347656 6.503906 14.414062 6.101562 14.550781 C 5.699219 14.6875 5.332031 14.882812 4.996094 15.140625 C 4.660156 15.398438 4.378906 15.703125 4.144531 16.054688 C 3.910156 16.40625 3.742188 16.785156 3.632812 17.191406 C 3.527344 17.601562 3.488281 18.015625 3.523438 18.433594 C 3.554688 18.851562 3.652344 19.257812 3.820312 19.644531 C 3.984375 20.03125 4.210938 20.378906 4.496094 20.695312 C 4.777344 21.007812 5.105469 21.265625 5.476562 21.46875 C 5.953125 21.789062 6.480469 21.945312 7.058594 21.945312 L 22.660156 21.945312 C 23.039062 21.945312 23.402344 21.875 23.75 21.730469 C 24.101562 21.585938 24.410156 21.378906 24.675781 21.113281 C 24.945312 20.847656 25.152344 20.542969 25.296875 20.195312 C 25.441406 19.847656 25.515625 19.488281 25.515625 19.113281 C 25.511719 18.738281 25.441406 18.375 25.292969 18.03125 C 25.148438 17.683594 24.941406 17.375 24.675781 17.109375 C 24.40625 16.847656 24.097656 16.640625 23.75 16.496094 C 23.402344 16.351562 23.039062 16.28125 22.660156 16.277344 Z M 22.660156 16.277344 " fill-opacity="1" fill-rule="nonzero"/></g><path fill="#26477a" d="M 14.996094 4.292969 C 14.996094 4.367188 14.96875 4.433594 14.914062 4.488281 C 14.859375 4.539062 14.792969 4.566406 14.71875 4.566406 C 14.640625 4.566406 14.574219 4.539062 14.523438 4.488281 C 14.46875 4.433594 14.441406 4.367188 14.441406 4.292969 C 14.441406 4.21875 14.46875 4.152344 14.523438 4.097656 C 14.574219 4.046875 14.640625 4.019531 14.71875 4.019531 C 14.792969 4.019531 14.859375 4.046875 14.914062 4.097656 C 14.96875 4.152344 14.996094 4.21875 14.996094 4.292969 Z M 14.996094 4.292969 " fill-opacity="1" fill-rule="nonzero"/><g clip-path="url(#298400294f)"><path fill="#26477a" d="M 21.839844 1.898438 C 21.839844 1.976562 21.8125 2.039062 21.757812 2.09375 C 21.703125 2.148438 21.640625 2.171875 21.5625 2.171875 C 21.484375 2.171875 21.421875 2.148438 21.367188 2.09375 C 21.3125 2.039062 21.285156 1.976562 21.285156 1.898438 C 21.285156 1.824219 21.3125 1.757812 21.367188 1.703125 C 21.421875 1.652344 21.484375 1.625 21.5625 1.625 C 21.640625 1.625 21.703125 1.652344 21.757812 1.703125 C 21.8125 1.757812 21.839844 1.824219 21.839844 1.898438 Z M 21.839844 1.898438 " fill-opacity="1" fill-rule="nonzero"/></g><path fill="#26477a" d="M 7.820312 2.703125 C 7.820312 2.777344 7.792969 2.84375 7.738281 2.894531 C 7.683594 2.949219 7.621094 2.976562 7.542969 2.976562 C 7.46875 2.976562 7.402344 2.949219 7.347656 2.894531 C 7.292969 2.84375 7.265625 2.777344 7.265625 2.703125 C 7.265625 2.625 7.292969 2.5625 7.347656 2.507812 C 7.402344 2.453125 7.46875 2.425781 7.542969 2.425781 C 7.621094 2.425781 7.683594 2.453125 7.738281 2.507812 C 7.792969 2.5625 7.820312 2.625 7.820312 2.703125 Z M 7.820312 2.703125 " fill-opacity="1" fill-rule="nonzero"/><path fill="#26477a" d="M 25.515625 7.152344 C 25.515625 7.230469 25.488281 7.292969 25.433594 7.347656 C 25.378906 7.402344 25.3125 7.429688 25.238281 7.429688 C 25.160156 7.429688 25.097656 7.402344 25.042969 7.347656 C 24.988281 7.292969 24.960938 7.230469 24.960938 7.152344 C 24.960938 7.078125 24.988281 7.011719 25.042969 6.960938 C 25.097656 6.90625 25.160156 6.878906 25.238281 6.878906 C 25.3125 6.878906 25.378906 6.90625 25.433594 6.960938 C 25.488281 7.011719 25.515625 7.078125 25.515625 7.152344 Z M 25.515625 7.152344 " fill-opacity="1" fill-rule="nonzero"/><g clip-path="url(#9bb2b2c445)"><path fill="#26477a" d="M 3.503906 10.730469 C 3.503906 10.804688 3.476562 10.867188 3.421875 10.921875 C 3.367188 10.976562 3.300781 11.003906 3.226562 11.003906 C 3.148438 11.003906 3.085938 10.976562 3.03125 10.921875 C 2.976562 10.867188 2.949219 10.804688 2.949219 10.730469 C 2.949219 10.652344 2.976562 10.589844 3.03125 10.535156 C 3.085938 10.480469 3.148438 10.453125 3.226562 10.453125 C 3.300781 10.453125 3.367188 10.480469 3.421875 10.535156 C 3.476562 10.589844 3.503906 10.652344 3.503906 10.730469 Z M 3.503906 10.730469 " fill-opacity="1" fill-rule="nonzero"/></g><path fill="#ffb544" d="M 14.339844 14.273438 C 13.832031 14.664062 13.273438 14.957031 12.660156 15.152344 C 12.046875 15.347656 11.417969 15.433594 10.777344 15.40625 C 10.132812 15.382812 9.515625 15.25 8.917969 15.007812 C 8.324219 14.765625 7.789062 14.429688 7.3125 14.003906 C 6.835938 13.574219 6.445312 13.074219 6.148438 12.511719 C 5.847656 11.945312 5.652344 11.347656 5.566406 10.714844 C 5.480469 10.082031 5.503906 9.453125 5.640625 8.828125 C 5.777344 8.207031 6.019531 7.625 6.359375 7.082031 C 6.703125 6.542969 7.128906 6.078125 7.640625 5.6875 C 8.148438 5.296875 8.707031 5.003906 9.320312 4.808594 C 9.933594 4.613281 10.5625 4.53125 11.207031 4.554688 C 11.847656 4.582031 12.46875 4.714844 13.0625 4.957031 C 12.746094 4.988281 12.433594 5.046875 12.128906 5.140625 C 11.824219 5.234375 11.53125 5.355469 11.25 5.507812 C 10.96875 5.660156 10.707031 5.835938 10.464844 6.039062 C 10.21875 6.246094 10 6.472656 9.800781 6.71875 C 9.601562 6.96875 9.433594 7.234375 9.289062 7.515625 C 9.144531 7.796875 9.03125 8.09375 8.945312 8.398438 C 8.863281 8.703125 8.808594 9.015625 8.789062 9.328125 C 8.765625 9.644531 8.777344 9.960938 8.820312 10.273438 C 8.863281 10.589844 8.9375 10.894531 9.042969 11.195312 C 9.148438 11.492188 9.285156 11.777344 9.449219 12.050781 C 9.609375 12.320312 9.800781 12.574219 10.015625 12.808594 C 10.230469 13.042969 10.464844 13.253906 10.722656 13.441406 C 10.980469 13.625 11.253906 13.785156 11.546875 13.917969 C 11.835938 14.050781 12.136719 14.152344 12.449219 14.222656 C 12.757812 14.292969 13.074219 14.335938 13.390625 14.34375 C 13.710938 14.351562 14.027344 14.328125 14.339844 14.273438 Z M 14.339844 14.273438 " fill-opacity="1" fill-rule="nonzero"/></svg>