<svg xmlns="http://www.w3.org/2000/svg" xmlns:xlink="http://www.w3.org/1999/xlink" width="40" zoomAndPan="magnify" viewBox="0 0 30 30.000001" height="40" preserveAspectRatio="xMidYMid meet" version="1.0"><defs><clipPath id="e715ce84ed"><path d="M 5.417969 0 L 29.515625 0 L 29.515625 23.316406 L 5.417969 23.316406 Z M 5.417969 0 " clip-rule="nonzero"/></clipPath></defs><g clip-path="url(#e715ce84ed)"><path fill="#ffd57f" d="M 23.316406 17.945312 C 22.113281 21.070312 19.109375 23.300781 15.582031 23.300781 C 11 23.300781 7.277344 19.554688 7.277344 14.914062 C 7.277344 10.273438 11 6.503906 15.582031 6.503906 C 15.886719 6.503906 16.171875 6.515625 16.464844 6.550781 C 13.492188 7.320312 11.292969 10.054688 11.292969 13.304688 C 11.292969 17.152344 14.367188 20.277344 18.175781 20.277344 C 20.21875 20.277344 22.054688 19.382812 23.316406 17.945312 Z M 21.226562 13.765625 L 21.910156 12.855469 L 23.03125 12.902344 L 22.386719 11.972656 L 22.78125 10.902344 L 21.703125 11.238281 L 20.820312 10.523438 L 20.796875 11.660156 L 19.855469 12.292969 L 20.921875 12.660156 Z M 28.566406 19.855469 L 28.089844 20.382812 L 27.398438 20.277344 L 27.738281 20.898438 L 27.453125 21.53125 L 28.136719 21.394531 L 28.632812 21.886719 L 28.714844 21.1875 L 29.324219 20.855469 L 28.691406 20.554688 Z M 26.535156 16.601562 L 26.296875 16.328125 L 26.230469 16.683594 L 25.902344 16.832031 L 26.21875 17.003906 L 26.242188 17.359375 L 26.5 17.121094 L 26.851562 17.199219 L 26.707031 16.867188 L 26.886719 16.554688 Z M 24.9375 6.492188 L 24.734375 5.90625 L 24.390625 6.421875 L 23.78125 6.433594 L 24.164062 6.917969 L 23.972656 7.515625 L 24.550781 7.296875 L 25.0625 7.652344 L 25.039062 7.03125 L 25.527344 6.652344 Z M 34.453125 19.464844 L 34.019531 19.519531 L 33.738281 19.1875 L 33.65625 19.613281 L 33.261719 19.785156 L 33.636719 20.003906 L 33.679688 20.453125 L 33.996094 20.152344 L 34.417969 20.246094 L 34.234375 19.84375 Z M 23.347656 21.921875 L 23.144531 21.335938 L 22.804688 21.851562 L 22.191406 21.863281 L 22.566406 22.347656 L 22.386719 22.945312 L 22.964844 22.726562 L 23.472656 23.082031 L 23.449219 22.460938 L 23.9375 22.082031 Z M 27.625 8.191406 L 28.136719 8.03125 L 28.566406 8.363281 L 28.566406 7.8125 L 29.019531 7.503906 L 28.507812 7.332031 L 28.363281 6.800781 L 28.042969 7.238281 L 27.5 7.214844 L 27.816406 7.664062 Z M 29.03125 12.671875 L 28.429688 11.984375 L 28.257812 12.890625 L 27.421875 13.257812 L 28.214844 13.707031 L 28.304688 14.625 L 28.972656 13.996094 L 29.859375 14.191406 L 29.472656 13.351562 L 29.9375 12.558594 Z M 5.871094 8.296875 L 5.953125 8.789062 L 6.191406 8.363281 L 6.667969 8.375 L 6.316406 8.078125 L 6.484375 7.753906 L 6.109375 7.894531 L 5.804688 7.628906 L 5.851562 7.984375 L 5.417969 8.144531 Z M 6.824219 19.015625 L 6.339844 19.269531 L 5.882812 18.945312 L 5.882812 18.957031 L 6.03125 19.488281 L 5.636719 19.878906 L 6.15625 19.820312 L 6.28125 20.210938 L 6.472656 19.785156 L 6.9375 19.738281 L 6.609375 19.496094 Z M 21.464844 4.769531 L 21.546875 5.25 L 21.546875 5.238281 L 21.785156 4.824219 L 22.261719 4.835938 L 21.910156 4.539062 L 22.078125 4.21875 L 21.703125 4.355469 L 21.398438 4.089844 L 21.445312 4.445312 L 21.011719 4.609375 Z M 11.621094 4.296875 L 12.199219 4.078125 L 12.699219 4.433594 L 12.675781 3.816406 L 13.164062 3.4375 L 12.574219 3.273438 L 12.371094 2.6875 L 12.03125 3.207031 L 11.417969 3.21875 L 11.804688 3.699219 Z M 16.554688 0.609375 L 17.226562 -0.0234375 L 18.109375 0.171875 L 17.722656 -0.667969 L 18.1875 -1.457031 L 17.28125 -1.34375 L 16.679688 -2.035156 L 16.511719 -1.125 L 15.671875 -0.757812 L 16.464844 -0.308594 Z M 16.554688 0.609375 " fill-opacity="1" fill-rule="nonzero"/></g></svg>