<svg xmlns="http://www.w3.org/2000/svg" xmlns:xlink="http://www.w3.org/1999/xlink" width="40" zoomAndPan="magnify" viewBox="0 0 30 30.000001" height="40" preserveAspectRatio="xMidYMid meet" version="1.0"><defs><clipPath id="81d074c13a"><path d="M 6 3.695312 L 29.515625 3.695312 L 29.515625 18 L 6 18 Z M 6 3.695312 " clip-rule="nonzero"/></clipPath><clipPath id="481147d3bd"><path d="M 0.484375 5 L 24 5 L 24 20 L 0.484375 20 Z M 0.484375 5 " clip-rule="nonzero"/></clipPath><clipPath id="3595a1fb8a"><path d="M 7 21 L 10 21 L 10 25.46875 L 7 25.46875 Z M 7 21 " clip-rule="nonzero"/></clipPath><clipPath id="da579f9d32"><path d="M 12 21 L 15 21 L 15 25.46875 L 12 25.46875 Z M 12 21 " clip-rule="nonzero"/></clipPath></defs><g clip-path="url(#81d074c13a)"><path fill="#86a3bf" d="M 14.738281 3.777344 C 14.394531 3.777344 14.058594 3.8125 13.722656 3.878906 C 13.386719 3.945312 13.0625 4.042969 12.746094 4.175781 C 12.433594 4.308594 12.132812 4.46875 11.847656 4.660156 C 11.566406 4.851562 11.300781 5.066406 11.058594 5.3125 C 10.820312 5.554688 10.601562 5.816406 10.414062 6.105469 C 10.222656 6.390625 10.0625 6.691406 9.933594 7.007812 C 9.800781 7.324219 9.703125 7.652344 9.636719 7.988281 C 9.570312 8.328125 9.539062 8.667969 9.539062 9.011719 C 9.539062 9.203125 9.550781 9.398438 9.574219 9.589844 C 7.609375 9.945312 6.140625 11.539062 6.140625 13.464844 C 6.140625 15.648438 8.039062 17.410156 10.398438 17.410156 L 25.59375 17.410156 C 27.765625 17.410156 29.515625 15.773438 29.515625 13.742188 C 29.515625 11.722656 27.789062 10.09375 25.632812 10.074219 C 25.566406 9.527344 25.402344 9.007812 25.144531 8.523438 C 24.890625 8.035156 24.554688 7.609375 24.144531 7.242188 C 23.734375 6.878906 23.269531 6.597656 22.757812 6.40625 C 22.246094 6.210938 21.714844 6.113281 21.167969 6.113281 C 20.519531 6.113281 19.898438 6.25 19.308594 6.519531 C 19.085938 6.105469 18.8125 5.726562 18.488281 5.386719 C 18.164062 5.046875 17.800781 4.757812 17.398438 4.515625 C 16.996094 4.273438 16.570312 4.089844 16.117188 3.964844 C 15.664062 3.839844 15.207031 3.777344 14.738281 3.777344 Z M 14.738281 3.777344 " fill-opacity="1" fill-rule="nonzero"/></g><g clip-path="url(#481147d3bd)"><path fill="#c6e0f7" d="M 9.085938 5.746094 C 8.742188 5.746094 8.40625 5.78125 8.070312 5.847656 C 7.734375 5.914062 7.410156 6.015625 7.09375 6.144531 C 6.777344 6.277344 6.480469 6.4375 6.195312 6.628906 C 5.910156 6.820312 5.648438 7.039062 5.40625 7.28125 C 5.164062 7.523438 4.949219 7.789062 4.761719 8.074219 C 4.570312 8.359375 4.410156 8.660156 4.28125 8.976562 C 4.148438 9.296875 4.050781 9.621094 3.984375 9.960938 C 3.917969 10.296875 3.882812 10.636719 3.882812 10.980469 C 3.882812 11.175781 3.894531 11.367188 3.917969 11.558594 C 1.957031 11.914062 0.484375 13.507812 0.484375 15.433594 C 0.484375 17.621094 2.386719 19.378906 4.746094 19.378906 L 19.941406 19.378906 C 22.113281 19.378906 23.863281 17.742188 23.863281 15.710938 C 23.863281 13.691406 22.132812 12.0625 19.980469 12.042969 C 19.910156 11.496094 19.75 10.980469 19.492188 10.492188 C 19.234375 10.003906 18.902344 9.578125 18.488281 9.214844 C 18.078125 8.847656 17.617188 8.570312 17.105469 8.375 C 16.589844 8.179688 16.0625 8.082031 15.511719 8.082031 C 14.863281 8.082031 14.246094 8.21875 13.65625 8.488281 C 13.433594 8.074219 13.160156 7.695312 12.835938 7.355469 C 12.511719 7.015625 12.148438 6.726562 11.746094 6.484375 C 11.34375 6.242188 10.914062 6.058594 10.464844 5.933594 C 10.011719 5.808594 9.550781 5.746094 9.085938 5.746094 Z M 9.085938 5.746094 " fill-opacity="1" fill-rule="nonzero"/></g><path fill="#3981bf" d="M 6.574219 16.898438 C 6.179688 17.34375 5.109375 18.242188 4.785156 19.464844 C 4.75 19.605469 4.742188 19.742188 4.761719 19.882812 C 4.777344 20.023438 4.824219 20.15625 4.894531 20.28125 C 4.964844 20.402344 5.054688 20.507812 5.167969 20.59375 C 5.28125 20.679688 5.402344 20.742188 5.539062 20.777344 C 5.675781 20.816406 5.816406 20.824219 5.953125 20.804688 C 6.09375 20.789062 6.226562 20.742188 6.347656 20.671875 C 6.46875 20.601562 6.574219 20.507812 6.660156 20.394531 C 6.746094 20.285156 6.808594 20.160156 6.84375 20.019531 C 6.847656 20.011719 6.847656 20.003906 6.851562 19.996094 C 7.183594 18.710938 6.691406 17.480469 6.574219 16.898438 Z M 6.574219 16.898438 " fill-opacity="1" fill-rule="nonzero"/><path fill="#3981bf" d="M 11.441406 16.898438 C 11.046875 17.34375 9.980469 18.242188 9.65625 19.464844 C 9.621094 19.605469 9.609375 19.742188 9.628906 19.882812 C 9.648438 20.023438 9.691406 20.15625 9.761719 20.28125 C 9.832031 20.402344 9.925781 20.507812 10.035156 20.59375 C 10.148438 20.679688 10.273438 20.742188 10.410156 20.777344 C 10.546875 20.816406 10.683594 20.824219 10.824219 20.804688 C 10.964844 20.789062 11.09375 20.742188 11.21875 20.671875 C 11.339844 20.601562 11.445312 20.507812 11.53125 20.394531 C 11.617188 20.285156 11.675781 20.160156 11.714844 20.019531 C 11.714844 20.011719 11.71875 20.003906 11.71875 19.996094 C 12.050781 18.710938 11.5625 17.480469 11.441406 16.898438 Z M 11.441406 16.898438 " fill-opacity="1" fill-rule="nonzero"/><path fill="#3981bf" d="M 16.320312 17.027344 C 15.925781 17.476562 14.855469 18.375 14.53125 19.597656 C 14.496094 19.734375 14.488281 19.875 14.507812 20.015625 C 14.523438 20.15625 14.570312 20.289062 14.640625 20.410156 C 14.710938 20.535156 14.800781 20.636719 14.914062 20.726562 C 15.027344 20.8125 15.148438 20.875 15.285156 20.910156 C 15.421875 20.945312 15.5625 20.957031 15.699219 20.9375 C 15.839844 20.917969 15.972656 20.875 16.09375 20.804688 C 16.21875 20.730469 16.320312 20.640625 16.40625 20.527344 C 16.492188 20.414062 16.554688 20.289062 16.589844 20.152344 C 16.59375 20.144531 16.59375 20.132812 16.597656 20.125 C 16.929688 18.839844 16.4375 17.609375 16.320312 17.027344 Z M 16.320312 17.027344 " fill-opacity="1" fill-rule="nonzero"/><g clip-path="url(#3595a1fb8a)"><path fill="#3981bf" d="M 9.011719 21.359375 C 8.617188 21.808594 7.546875 22.707031 7.226562 23.929688 C 7.1875 24.066406 7.179688 24.203125 7.199219 24.347656 C 7.214844 24.488281 7.261719 24.617188 7.332031 24.742188 C 7.402344 24.863281 7.492188 24.96875 7.605469 25.054688 C 7.71875 25.144531 7.84375 25.203125 7.980469 25.242188 C 8.113281 25.277344 8.253906 25.289062 8.394531 25.269531 C 8.535156 25.25 8.664062 25.207031 8.785156 25.132812 C 8.910156 25.0625 9.011719 24.972656 9.097656 24.859375 C 9.183594 24.746094 9.246094 24.621094 9.28125 24.484375 C 9.285156 24.472656 9.289062 24.464844 9.289062 24.457031 C 9.621094 23.171875 9.132812 21.941406 9.011719 21.359375 Z M 9.011719 21.359375 " fill-opacity="1" fill-rule="nonzero"/></g><g clip-path="url(#da579f9d32)"><path fill="#3981bf" d="M 13.882812 21.359375 C 13.488281 21.808594 12.417969 22.707031 12.09375 23.929688 C 12.058594 24.066406 12.050781 24.203125 12.066406 24.347656 C 12.085938 24.488281 12.128906 24.617188 12.199219 24.742188 C 12.273438 24.863281 12.363281 24.96875 12.476562 25.054688 C 12.585938 25.144531 12.710938 25.203125 12.847656 25.242188 C 12.984375 25.277344 13.121094 25.289062 13.261719 25.269531 C 13.402344 25.25 13.535156 25.207031 13.65625 25.132812 C 13.777344 25.0625 13.882812 24.972656 13.96875 24.859375 C 14.054688 24.746094 14.117188 24.621094 14.152344 24.484375 C 14.15625 24.472656 14.15625 24.464844 14.160156 24.457031 C 14.488281 23.171875 14 21.941406 13.882812 21.359375 Z M 13.882812 21.359375 " fill-opacity="1" fill-rule="nonzero"/></g></svg>