<svg xmlns="http://www.w3.org/2000/svg" xmlns:xlink="http://www.w3.org/1999/xlink" width="40" zoomAndPan="magnify" viewBox="0 0 30 30.000001" height="40" preserveAspectRatio="xMidYMid meet" version="1.0"><defs><clipPath id="17802c463a"><path d="M 8 15 L 20 15 L 20 26.925781 L 8 26.925781 Z M 8 15 " clip-rule="nonzero"/></clipPath><clipPath id="57a9b92f66"><path d="M 10 15 L 20 15 L 20 26.925781 L 10 26.925781 Z M 10 15 " clip-rule="nonzero"/></clipPath><clipPath id="284615b2e5"><path d="M 0.484375 2.25 L 29.515625 2.25 L 29.515625 18 L 0.484375 18 Z M 0.484375 2.25 " clip-rule="nonzero"/></clipPath><clipPath id="66d4f70a97"><path d="M 5 2.25 L 29.515625 2.25 L 29.515625 17 L 5 17 Z M 5 2.25 " clip-rule="nonzero"/></clipPath></defs><g clip-path="url(#17802c463a)"><path fill="#ffcf00" d="M 13.542969 15.847656 L 18.089844 15.847656 L 15 19.371094 L 19.003906 19.371094 L 10.644531 26.925781 L 13.5 20.882812 L 8.992188 20.882812 Z M 13.542969 15.847656 " fill-opacity="1" fill-rule="nonzero"/></g><g clip-path="url(#57a9b92f66)"><path fill="#ffc000" d="M 19.003906 19.371094 L 10.644531 26.925781 L 11.347656 25.433594 L 17.503906 19.875 L 13.5 19.875 L 16.585938 16.351562 L 13.085938 16.351562 L 13.542969 15.847656 L 18.089844 15.847656 L 15 19.371094 Z M 19.003906 19.371094 " fill-opacity="1" fill-rule="nonzero"/></g><path fill="#ffcf00" d="M 23.007812 15.34375 L 26.511719 15.34375 L 24.011719 17.863281 L 26.511719 17.863281 L 21.007812 22.898438 L 23.007812 18.867188 L 20.003906 18.867188 Z M 23.007812 15.34375 " fill-opacity="1" fill-rule="nonzero"/><path fill="#ffcf00" d="M 4.988281 15.34375 L 8.492188 15.34375 L 5.988281 17.863281 L 8.492188 17.863281 L 2.988281 22.898438 L 4.988281 18.867188 L 1.984375 18.867188 Z M 4.988281 15.34375 " fill-opacity="1" fill-rule="nonzero"/><path fill="#ffc000" d="M 5.988281 17.863281 L 8.492188 17.863281 L 2.988281 22.898438 L 4.199219 20.464844 L 6.492188 18.367188 L 3.988281 18.367188 L 6.492188 15.847656 L 4.558594 15.847656 L 4.988281 15.34375 L 8.492188 15.34375 Z M 5.988281 17.863281 " fill-opacity="1" fill-rule="nonzero"/><path fill="#ffc000" d="M 24.011719 17.863281 L 26.511719 17.863281 L 21.007812 22.898438 L 22.21875 20.464844 L 24.511719 18.367188 L 22.007812 18.367188 L 24.511719 15.847656 L 22.578125 15.847656 L 23.007812 15.34375 L 26.511719 15.34375 Z M 24.011719 17.863281 " fill-opacity="1" fill-rule="nonzero"/><g clip-path="url(#284615b2e5)"><path fill="#b3b3b3" d="M 24.894531 7 C 24.894531 5.5 23.714844 4.285156 22.257812 4.285156 C 21.613281 4.285156 21.027344 4.53125 20.570312 4.929688 C 19.238281 3.292969 17.242188 2.25 15 2.25 C 12.757812 2.25 10.761719 3.292969 9.429688 4.929688 C 8.96875 4.53125 8.386719 4.285156 7.742188 4.285156 C 6.285156 4.285156 5.105469 5.5 5.105469 7 C 2.550781 7 0.484375 9.125 0.484375 11.75 C 0.484375 14.371094 2.550781 16.496094 5.105469 16.496094 C 5.644531 16.496094 6.160156 16.398438 6.644531 16.21875 C 7.050781 17.183594 7.980469 17.851562 9.0625 17.851562 C 10.144531 17.851562 11.066406 17.183594 11.476562 16.230469 C 12.523438 16.828125 13.722656 17.171875 15 17.171875 C 16.277344 17.171875 17.484375 16.828125 18.523438 16.230469 C 18.933594 17.183594 19.855469 17.851562 20.9375 17.851562 C 22.019531 17.851562 22.949219 17.175781 23.355469 16.21875 C 23.835938 16.398438 24.355469 16.496094 24.894531 16.496094 C 27.449219 16.496094 29.515625 14.371094 29.515625 11.75 C 29.515625 9.125 27.449219 7 24.894531 7 Z M 24.894531 7 " fill-opacity="1" fill-rule="nonzero"/></g><g clip-path="url(#66d4f70a97)"><path fill="#999999" d="M 29.515625 11.753906 C 29.515625 13.96875 28.039062 15.828125 26.046875 16.351562 C 26.347656 15.722656 26.511719 15.015625 26.511719 14.269531 C 26.511719 11.648438 24.445312 9.519531 21.894531 9.519531 C 21.894531 8.023438 20.710938 6.804688 19.253906 6.804688 C 18.609375 6.804688 18.023438 7.054688 17.566406 7.449219 C 16.238281 5.8125 14.234375 4.769531 11.996094 4.769531 C 9.757812 4.769531 7.757812 5.8125 6.425781 7.449219 C 6.058594 7.132812 5.609375 6.910156 5.113281 6.832031 C 5.195312 5.414062 6.339844 4.285156 7.742188 4.285156 C 8.386719 4.285156 8.972656 4.539062 9.429688 4.929688 C 10.761719 3.292969 12.761719 2.25 15 2.25 C 17.238281 2.25 19.238281 3.292969 20.570312 4.929688 C 21.027344 4.539062 21.613281 4.285156 22.257812 4.285156 C 23.714844 4.285156 24.894531 5.503906 24.894531 7 C 27.449219 7 29.515625 9.128906 29.515625 11.753906 Z M 29.515625 11.753906 " fill-opacity="1" fill-rule="nonzero"/></g></svg>