<svg xmlns="http://www.w3.org/2000/svg" xmlns:xlink="http://www.w3.org/1999/xlink" width="40" zoomAndPan="magnify" viewBox="0 0 30 30.000001" height="40" preserveAspectRatio="xMidYMid meet" version="1.0"><defs><clipPath id="80aad9e288"><path d="M 24 13 L 29.515625 13 L 29.515625 15 L 24 15 Z M 24 13 " clip-rule="nonzero"/></clipPath><clipPath id="322833b23b"><path d="M 15 24 L 17 24 L 17 29.03125 L 15 29.03125 Z M 15 24 " clip-rule="nonzero"/></clipPath><clipPath id="343d56af76"><path d="M 0.488281 14 L 6 14 L 6 16 L 0.488281 16 Z M 0.488281 14 " clip-rule="nonzero"/></clipPath></defs><path stroke-linecap="butt" transform="matrix(-0.00439312, 0.000019643, -0.0000041386, -0.00516088, 15.336101, 4.892018)" fill-opacity="1" fill="#ffc100" fill-rule="evenodd" stroke-linejoin="miter" d="M 74.728092 -0.202561 L 78.284776 -0.189024 C 98.735711 -0.111185 116.512002 7.525431 130.725191 21.960548 C 145.827552 36.399049 152.923808 54.591556 152.904556 75.027669 L 153.043607 871.282539 C 153.024355 891.718651 145.894587 909.100117 130.764418 924.180445 C 116.524133 938.507264 98.733581 946.008508 78.282646 945.930669 L 74.725962 945.917132 C 54.275027 945.839293 36.498023 938.95957 22.285546 923.76756 C 7.183186 909.329059 0.0862169 891.893445 0.106182 870.700439 L -0.0335829 75.202462 C -0.0136178 54.009457 7.116151 36.627991 22.245607 22.304556 C 36.486605 7.220844 54.277157 -0.2804 74.728092 -0.202561 Z M 74.728092 -0.202561 " stroke="#ffc100" stroke-width="1.332" stroke-opacity="1" stroke-miterlimit="4"/><path stroke-linecap="butt" transform="matrix(-0.00315791, -0.00305174, 0.0036042, -0.0036965, 21.966806, 7.86476)" fill-opacity="1" fill="#ffc100" fill-rule="evenodd" stroke-linejoin="miter" d="M 74.784024 -0.0488706 L 78.557577 0.00600178 C 98.683191 0.298654 116.197692 6.973956 131.069274 22.17165 C 145.319882 36.825263 153.23353 54.597037 152.931391 74.924601 L 153.057828 870.548028 C 152.739788 891.945463 145.559224 909.497748 130.879262 923.730673 C 116.183398 939.03347 98.462171 946.266501 78.336557 945.973849 L 74.563004 945.918976 C 54.43739 945.626324 36.301915 938.406941 22.051307 923.753328 C 7.163823 909.625506 -0.112948 891.327941 0.18919 871.000377 L 0.0627535 75.37695 C -0.256083 54.505305 7.561357 36.42723 22.241319 22.194305 C 36.300307 7.417299 54.021534 0.184267 74.784024 -0.0488706 Z M 74.784024 -0.0488706 " stroke="#ffc100" stroke-width="1.332" stroke-opacity="1" stroke-miterlimit="4"/><g clip-path="url(#80aad9e288)"><path stroke-linecap="butt" transform="matrix(-0.000127055, -0.00438793, 0.00516326, -0.000130367, 24.634598, 14.61967)" fill-opacity="1" fill="#ffc100" fill-rule="evenodd" stroke-linejoin="miter" d="M 75.344844 -0.00485926 L 78.013571 0.0608114 C 98.496269 -0.191708 116.085631 7.050044 130.781657 21.786067 C 145.477684 36.522091 152.967262 54.106968 153.227932 75.296696 L 152.728012 871.17171 C 153.011143 891.605443 145.355477 909.574181 130.67305 924.343821 C 116.013084 938.357467 98.864079 946.257488 78.403842 945.754013 L 74.84554 945.666452 C 54.362842 945.918971 36.77348 938.677219 22.077454 923.941196 C 7.381428 909.205173 -0.108151 891.620295 -0.391282 871.186562 L 0.108639 75.311548 C -0.152031 54.121821 7.481174 36.909077 22.1636 22.139437 C 36.846027 7.369797 53.972571 0.22577 75.344844 -0.00485926 Z M 75.344844 -0.00485926 " stroke="#ffc100" stroke-width="1.332" stroke-opacity="1" stroke-miterlimit="4"/></g><path stroke-linecap="butt" transform="matrix(0.00297601, -0.00322915, 0.00378645, 0.00350994, 21.822525, 21.315911)" fill-opacity="1" fill="#ffc100" fill-rule="evenodd" stroke-linejoin="miter" d="M 75.09544 0.228457 L 78.261981 -0.197051 C 99.027763 -0.0119811 116.341163 7.013086 131.411631 21.990843 C 145.877374 36.412253 153.26239 54.335577 152.961954 75.204469 L 152.763916 870.753032 C 152.463481 891.621923 145.368158 909.578242 130.873223 924.065639 C 116.378289 938.553037 99.050293 945.982374 78.284511 945.797304 L 75.11797 946.222813 C 54.352188 946.037743 36.434063 938.456329 21.96832 924.034919 C 7.502577 909.613508 0.117561 891.690184 -0.234368 871.334026 L 0.0113101 74.716383 C -0.340619 54.360225 7.359429 36.960254 22.506727 21.960122 C 37.001662 7.472724 54.329658 0.0433872 75.09544 0.228457 Z M 75.09544 0.228457 " stroke="#ffc100" stroke-width="1.332" stroke-opacity="1" stroke-miterlimit="4"/><g clip-path="url(#322833b23b)"><path stroke-linecap="butt" transform="matrix(0.00438691, -0.000234217, 0.000256645, 0.00515447, 15.129535, 24.145947)" fill-opacity="1" fill="#ffc100" fill-rule="evenodd" stroke-linejoin="miter" d="M 74.647906 0.0859868 L 78.200193 0.247401 C 98.714277 -0.336123 116.077752 7.273398 131.267123 21.604662 C 145.524206 36.6514 153.387915 54.438975 153.082109 74.88668 L 152.789032 871.360086 C 153.371297 891.848144 146.09357 909.705537 131.000069 924.176436 C 116.79464 938.687689 98.546811 946.194724 78.076945 946.022421 L 75.41273 945.90136 C 54.054792 945.688703 36.6471 938.83501 22.390017 923.788271 C 7.200646 909.457007 0.225007 891.709786 -0.357258 871.221728 L -0.0641804 74.748321 C 0.241626 54.300617 7.519353 36.443224 21.724782 21.931971 C 36.818283 7.461072 54.17804 -0.0863168 74.647906 0.0859868 Z M 74.647906 0.0859868 " stroke="#ffc100" stroke-width="1.332" stroke-opacity="1" stroke-miterlimit="4"/></g><path stroke-linecap="butt" transform="matrix(0.00330343, 0.00289388, -0.00341905, 0.00386817, 8.361324, 21.500606)" fill-opacity="1" fill="#ffc100" fill-rule="evenodd" stroke-linejoin="miter" d="M 75.216626 0.123286 L 77.727656 0.26441 C 98.559722 -0.17292 116.928178 7.291911 130.988439 22.019194 C 145.715147 36.247891 152.599251 54.324152 152.973644 75.250805 L 153.312539 870.75519 C 153.020486 892.180429 146.093924 909.48051 131.19996 923.652604 C 116.228617 938.892431 98.698826 945.94785 77.866759 946.38518 L 74.766661 945.674909 C 53.934594 946.112239 36.821654 938.71797 21.505878 923.920125 C 7.445616 909.192842 -0.104934 891.615167 0.109741 871.257661 L -0.151776 74.685543 C 0.0628992 54.328037 7.655908 36.529371 21.960804 21.788129 C 36.854767 7.616035 53.795491 -0.00853162 75.216626 0.123286 Z M 75.216626 0.123286 " stroke="#ffc100" stroke-width="1.332" stroke-opacity="1" stroke-miterlimit="4"/><g clip-path="url(#343d56af76)"><path stroke-linecap="butt" transform="matrix(0.000341589, 0.00437651, -0.00515069, 0.000382418, 5.366304, 14.884075)" fill-opacity="1" fill="#ffc100" fill-rule="evenodd" stroke-linejoin="miter" d="M 74.665516 0.229776 L 78.281031 -0.288839 C 98.757282 0.310735 115.978335 7.519968 130.76571 22.151736 C 145.553085 36.783503 152.977656 53.960549 152.907653 75.190922 L 153.010618 870.752431 C 152.940614 891.982803 146.034898 909.726264 131.406063 923.92396 C 116.711342 938.87568 99.125856 946.051753 77.69631 946.14735 L 75.034089 945.970794 C 54.491951 946.125243 36.383491 938.857158 21.596116 924.225391 C 7.696149 909.652475 0.337463 891.721405 0.341581 871.245056 L 0.304502 74.929524 C 0.308619 54.453175 7.214335 36.709715 21.909056 21.757995 C 36.537891 7.560299 54.189264 -0.369798 74.665516 0.229776 Z M 74.665516 0.229776 " stroke="#ffc100" stroke-width="1.332" stroke-opacity="1" stroke-miterlimit="4"/></g><path stroke-linecap="butt" transform="matrix(-0.0028145, 0.00337063, -0.0039536, -0.0033208, 7.847413, 8.058503)" fill-opacity="1" fill="#ffc100" fill-rule="evenodd" stroke-linejoin="miter" d="M 75.151602 -0.207461 L 77.658214 -0.0158307 C 98.501299 -0.0333374 116.074596 7.216981 130.950246 22.31585 C 145.934921 36.349083 152.96366 54.069971 152.717628 74.993604 L 153.394866 870.858189 C 153.148835 891.781823 145.710043 908.933656 130.860441 924.444964 C 116.119864 938.890634 98.954686 946.170131 78.1116 946.187637 L 74.923823 946.480918 C 54.761903 946.013514 36.616466 938.18247 21.631791 924.149237 C 7.328281 909.631094 0.299543 891.910205 0.545574 870.986572 L -0.131664 75.121987 C 0.114368 54.198354 6.981019 36.465794 21.721596 22.020124 C 36.462173 7.574453 54.308516 -0.189954 75.151602 -0.207461 Z M 75.151602 -0.207461 " stroke="#ffc100" stroke-width="1.332" stroke-opacity="1" stroke-miterlimit="4"/><path stroke-linecap="butt" transform="matrix(0.00517325, 0, 0, 0.0051692, 0.515785, 0.00849985)" fill-opacity="1" fill="#ffc100" fill-rule="nonzero" stroke-linejoin="miter" d="M 4319.06527 2807.207757 C 4319.06527 2906.957144 4309.249142 3005.950855 4289.616886 3103.433211 C 4269.984631 3201.671245 4241.291334 3296.130893 4203.536997 3388.323509 C 4165.027572 3480.516125 4118.212194 3568.174678 4063.090861 3651.299168 C 4007.214441 3734.423657 3944.542241 3811.50273 3873.564086 3881.780708 C 3803.341019 3952.058686 3726.32217 4015.535569 3643.262627 4070.700003 C 3560.203085 4126.620114 3472.613021 4173.4721 3380.492438 4211.255959 C 3288.371854 4249.795495 3193.230923 4278.511228 3095.824732 4298.158834 C 2997.663455 4317.050764 2898.74709 4326.874567 2799.075639 4326.874567 C 2699.404188 4326.874567 2600.487824 4317.050764 2502.326546 4298.158834 C 2404.920355 4278.511228 2309.779424 4249.795495 2217.658841 4211.255959 C 2124.78317 4173.4721 2037.193107 4126.620114 1954.888651 4070.700003 C 1871.829109 4015.535569 1794.81026 3952.058686 1723.832105 3881.780708 C 1653.609037 3811.50273 1590.936837 3734.423657 1535.060417 3651.299168 C 1479.939085 3568.174678 1433.123706 3480.516125 1394.614282 3388.323509 C 1356.859944 3296.130893 1327.411561 3201.671245 1308.534392 3103.433211 C 1288.902136 3005.950855 1279.086009 2906.957144 1279.086009 2807.207757 C 1279.086009 2707.458369 1288.902136 2608.464658 1308.534392 2510.226624 C 1327.411561 2412.744268 1356.859944 2317.528943 1394.614282 2225.336327 C 1433.123706 2133.143711 1479.939085 2045.485158 1535.060417 1962.360668 C 1590.936837 1879.236178 1653.609037 1802.912783 1723.832105 1731.879128 C 1794.81026 1661.60115 1871.829109 1598.879944 1954.888651 1542.959833 C 2037.193107 1487.795399 2124.78317 1440.943414 2217.658841 1402.403877 C 2309.779424 1364.620018 2404.920355 1335.904285 2502.326546 1316.256679 C 2600.487824 1296.609072 2699.404188 1286.785269 2799.075639 1286.785269 C 2898.74709 1286.785269 2997.663455 1296.609072 3095.824732 1316.256679 C 3193.230923 1335.904285 3288.371854 1364.620018 3380.492438 1402.403877 C 3472.613021 1440.943414 3560.203085 1487.795399 3643.262627 1542.959833 C 3726.32217 1598.879944 3803.341019 1661.60115 3873.564086 1731.879128 C 3944.542241 1802.912783 4007.214441 1879.236178 4063.090861 1962.360668 C 4118.212194 2045.485158 4165.027572 2133.143711 4203.536997 2225.336327 C 4241.291334 2317.528943 4269.984631 2412.744268 4289.616886 2510.226624 C 4309.249142 2608.464658 4319.06527 2707.458369 4319.06527 2807.207757 Z M 4319.06527 2807.207757 " stroke="#ffc100" stroke-width="1.332" stroke-opacity="1" stroke-miterlimit="4"/></svg>