<svg xmlns="http://www.w3.org/2000/svg" xmlns:xlink="http://www.w3.org/1999/xlink" width="40" zoomAndPan="magnify" viewBox="0 0 30 30.000001" height="40" preserveAspectRatio="xMidYMid meet" version="1.0"><defs><clipPath id="efc7d912f0"><path d="M 8 6.941406 L 29.441406 6.941406 L 29.441406 19 L 8 19 Z M 8 6.941406 " clip-rule="nonzero"/></clipPath><clipPath id="09d1e18ee5"><path d="M 0.484375 11 L 12 11 L 12 17 L 0.484375 17 Z M 0.484375 11 " clip-rule="nonzero"/></clipPath><clipPath id="ead97d8a71"><path d="M 0.484375 18 L 14 18 L 14 22.183594 L 0.484375 22.183594 Z M 0.484375 18 " clip-rule="nonzero"/></clipPath></defs><g clip-path="url(#efc7d912f0)"><path fill="#86a3bf" d="M 16.132812 6.949219 C 15.824219 6.949219 15.523438 6.980469 15.222656 7.039062 C 14.921875 7.097656 14.632812 7.183594 14.351562 7.296875 C 14.066406 7.414062 13.800781 7.554688 13.542969 7.71875 C 13.289062 7.886719 13.054688 8.074219 12.839844 8.289062 C 12.625 8.5 12.429688 8.730469 12.261719 8.980469 C 12.089844 9.230469 11.945312 9.492188 11.828125 9.769531 C 11.714844 10.046875 11.625 10.335938 11.566406 10.628906 C 11.503906 10.921875 11.476562 11.21875 11.476562 11.519531 C 11.476562 11.691406 11.488281 11.859375 11.507812 12.027344 C 9.75 12.335938 8.433594 13.726562 8.433594 15.410156 C 8.433594 17.320312 10.132812 18.855469 12.246094 18.855469 L 25.847656 18.855469 C 27.792969 18.855469 29.359375 17.425781 29.359375 15.652344 C 29.359375 13.886719 27.8125 12.464844 25.886719 12.449219 C 25.824219 11.972656 25.679688 11.519531 25.449219 11.09375 C 25.21875 10.667969 24.917969 10.296875 24.550781 9.976562 C 24.183594 9.65625 23.769531 9.414062 23.3125 9.242188 C 22.851562 9.074219 22.375 8.988281 21.886719 8.988281 C 21.304688 8.988281 20.753906 9.105469 20.222656 9.34375 C 19.816406 8.605469 19.246094 8.023438 18.511719 7.59375 C 17.777344 7.164062 16.984375 6.949219 16.132812 6.949219 Z M 16.132812 6.949219 " fill-opacity="1" fill-rule="nonzero"/></g><path fill="#c6e0f7" d="M 11.070312 8.667969 C 10.765625 8.667969 10.460938 8.699219 10.160156 8.757812 C 9.863281 8.816406 9.570312 8.902344 9.289062 9.015625 C 9.007812 9.132812 8.738281 9.273438 8.484375 9.441406 C 8.230469 9.605469 7.996094 9.796875 7.777344 10.007812 C 7.5625 10.21875 7.367188 10.453125 7.199219 10.699219 C 7.027344 10.949219 6.886719 11.214844 6.769531 11.492188 C 6.652344 11.769531 6.5625 12.054688 6.503906 12.347656 C 6.445312 12.644531 6.414062 12.941406 6.414062 13.242188 C 6.414062 13.410156 6.425781 13.578125 6.445312 13.746094 C 4.691406 14.054688 3.371094 15.449219 3.371094 17.128906 C 3.371094 19.039062 5.074219 20.578125 7.183594 20.578125 L 20.789062 20.578125 C 22.734375 20.578125 24.300781 19.148438 24.300781 17.371094 C 24.300781 15.609375 22.753906 14.1875 20.824219 14.167969 C 20.761719 13.691406 20.617188 13.238281 20.386719 12.8125 C 20.15625 12.386719 19.859375 12.015625 19.492188 11.695312 C 19.121094 11.378906 18.707031 11.132812 18.25 10.964844 C 17.789062 10.792969 17.316406 10.707031 16.824219 10.707031 C 16.246094 10.710938 15.691406 10.828125 15.164062 11.0625 C 14.757812 10.324219 14.1875 9.742188 13.453125 9.3125 C 12.71875 8.882812 11.925781 8.667969 11.070312 8.667969 Z M 11.070312 8.667969 " fill-opacity="1" fill-rule="nonzero"/><g clip-path="url(#09d1e18ee5)"><path fill="#3981bf" d="M 9.785156 11.765625 C 8.570312 11.765625 7.578125 12.730469 7.578125 13.917969 C 7.578125 14.015625 7.613281 14.101562 7.683594 14.171875 C 7.757812 14.242188 7.84375 14.273438 7.941406 14.273438 C 8.042969 14.273438 8.128906 14.242188 8.203125 14.171875 C 8.273438 14.101562 8.308594 14.015625 8.308594 13.917969 C 8.308594 13.121094 8.964844 12.484375 9.785156 12.484375 C 10.605469 12.484375 11.261719 13.121094 11.261719 13.917969 C 11.261719 14.710938 10.605469 15.351562 9.785156 15.351562 L 0.160156 15.351562 C 0.0585938 15.351562 -0.0273438 15.386719 -0.0976562 15.457031 C -0.171875 15.523438 -0.207031 15.609375 -0.207031 15.707031 C -0.207031 15.808594 -0.171875 15.890625 -0.0976562 15.960938 C -0.0273438 16.03125 0.0585938 16.066406 0.160156 16.066406 L 9.785156 16.066406 C 10.996094 16.066406 11.988281 15.101562 11.988281 13.917969 C 11.988281 12.730469 10.996094 11.765625 9.785156 11.765625 Z M 9.785156 11.765625 " fill-opacity="1" fill-rule="nonzero"/></g><path fill="#3981bf" d="M 14.265625 13.867188 C 13.230469 13.867188 12.367188 14.667969 12.367188 15.660156 C 12.367188 15.757812 12.40625 15.84375 12.476562 15.914062 C 12.546875 15.984375 12.632812 16.019531 12.734375 16.019531 C 12.835938 16.019531 12.921875 15.984375 12.992188 15.914062 C 13.0625 15.84375 13.097656 15.757812 13.097656 15.660156 C 13.097656 15.070312 13.605469 14.585938 14.265625 14.585938 C 14.921875 14.585938 15.429688 15.070312 15.429688 15.660156 C 15.429688 16.25 14.921875 16.734375 14.265625 16.734375 L 2.105469 16.734375 C 2.003906 16.734375 1.917969 16.769531 1.847656 16.839844 C 1.777344 16.910156 1.742188 16.996094 1.742188 17.09375 C 1.742188 17.191406 1.777344 17.277344 1.847656 17.347656 C 1.917969 17.417969 2.003906 17.453125 2.105469 17.453125 L 14.265625 17.453125 C 15.296875 17.453125 16.160156 16.65625 16.160156 15.660156 C 16.160156 14.667969 15.296875 13.867188 14.265625 13.867188 Z M 14.265625 13.867188 " fill-opacity="1" fill-rule="nonzero"/><g clip-path="url(#ead97d8a71)"><path fill="#3981bf" d="M 1.230469 18.121094 C 1.128906 18.121094 1.042969 18.15625 0.972656 18.226562 C 0.898438 18.296875 0.863281 18.382812 0.863281 18.480469 C 0.863281 18.578125 0.898438 18.664062 0.972656 18.734375 C 1.042969 18.804688 1.128906 18.839844 1.230469 18.839844 L 11.359375 18.839844 C 12.128906 18.839844 12.738281 19.429688 12.738281 20.160156 C 12.738281 20.886719 12.128906 21.480469 11.359375 21.480469 C 10.589844 21.480469 9.980469 20.886719 9.980469 20.160156 C 9.980469 20.058594 9.945312 19.976562 9.875 19.90625 C 9.804688 19.835938 9.71875 19.800781 9.617188 19.800781 C 9.515625 19.800781 9.429688 19.835938 9.359375 19.90625 C 9.289062 19.976562 9.253906 20.058594 9.253906 20.160156 C 9.253906 21.285156 10.203125 22.195312 11.359375 22.195312 C 12.515625 22.195312 13.46875 21.285156 13.46875 20.160156 C 13.46875 19.035156 12.515625 18.121094 11.359375 18.121094 Z M 1.230469 18.121094 " fill-opacity="1" fill-rule="nonzero"/></g></svg>