<svg xmlns="http://www.w3.org/2000/svg" xmlns:xlink="http://www.w3.org/1999/xlink" width="40" zoomAndPan="magnify" viewBox="0 0 30 30.000001" height="40" preserveAspectRatio="xMidYMid meet" version="1.0"><defs><clipPath id="2c0b6b624e"><path d="M 0.484375 8.636719 L 17 8.636719 L 17 22 L 0.484375 22 Z M 0.484375 8.636719 " clip-rule="nonzero"/></clipPath><clipPath id="b3b656656d"><path d="M 8 11 L 29.515625 11 L 29.515625 23.878906 L 8 23.878906 Z M 8 11 " clip-rule="nonzero"/></clipPath></defs><g clip-path="url(#2c0b6b624e)"><path fill="#55acee" d="M 9.117188 21.425781 L 4.433594 21.425781 C 2.253906 21.425781 0.484375 19.65625 0.484375 17.476562 C 0.484375 16.402344 0.910156 15.382812 1.675781 14.632812 C 2.324219 14.019531 3.140625 13.644531 4.027344 13.542969 C 3.753906 12.488281 3.941406 11.328125 4.585938 10.375 C 5.320312 9.300781 6.546875 8.636719 7.855469 8.636719 C 9.269531 8.636719 10.597656 9.386719 11.28125 10.597656 C 11.757812 10.410156 12.234375 10.308594 12.691406 10.308594 C 14.496094 10.308594 16.0625 11.53125 16.523438 13.253906 C 16.558594 13.472656 16.457031 13.710938 16.234375 13.765625 L 9.542969 21.019531 C 9.542969 21.257812 9.355469 21.425781 9.117188 21.425781 Z M 9.117188 21.425781 " fill-opacity="1" fill-rule="evenodd"/></g><path fill="#3e88cb" d="M 9.117188 21.425781 L 8.351562 21.425781 C 8.179688 20.949219 8.09375 20.457031 8.09375 19.929688 C 8.09375 17.511719 10.054688 15.519531 12.488281 15.519531 C 12.675781 15.519531 12.863281 15.535156 13.050781 15.570312 C 13.476562 14.019531 14.703125 12.84375 16.21875 12.46875 C 16.335938 12.726562 16.4375 12.980469 16.523438 13.253906 C 16.558594 13.472656 16.457031 13.710938 16.234375 13.765625 L 9.542969 21.019531 C 9.542969 21.257812 9.355469 21.425781 9.117188 21.425781 Z M 9.117188 21.425781 " fill-opacity="1" fill-rule="evenodd"/><g clip-path="url(#b3b656656d)"><path fill="#55acee" d="M 25.546875 23.878906 L 12.488281 23.878906 C 10.308594 23.878906 8.539062 22.105469 8.539062 19.929688 C 8.539062 17.75 10.308594 15.976562 12.488281 15.976562 C 12.792969 15.976562 13.101562 16.011719 13.40625 16.097656 C 13.714844 14.207031 15.332031 12.792969 17.289062 12.792969 C 17.785156 12.792969 18.261719 12.878906 18.703125 13.046875 C 19.417969 11.839844 20.710938 11.089844 22.125 11.089844 C 23.453125 11.089844 24.679688 11.753906 25.414062 12.828125 C 26.042969 13.78125 26.230469 14.90625 25.972656 15.996094 C 26.84375 16.097656 27.675781 16.472656 28.308594 17.085938 C 29.089844 17.832031 29.515625 18.855469 29.515625 19.929688 C 29.5 22.105469 27.726562 23.878906 25.546875 23.878906 Z M 25.546875 23.878906 " fill-opacity="1" fill-rule="evenodd"/></g></svg>