<svg xmlns="http://www.w3.org/2000/svg" xmlns:xlink="http://www.w3.org/1999/xlink" width="40" zoomAndPan="magnify" viewBox="0 0 30 30.000001" height="40" preserveAspectRatio="xMidYMid meet" version="1.0"><defs><clipPath id="2c2c9ca67a"><path d="M 0.484375 0 L 29.515625 0 L 29.515625 20 L 0.484375 20 Z M 0.484375 0 " clip-rule="nonzero"/></clipPath><clipPath id="43e918a5e8"><path d="M 0.484375 9 L 29.515625 9 L 29.515625 20 L 0.484375 20 Z M 0.484375 9 " clip-rule="nonzero"/></clipPath><clipPath id="badac3f50f"><path d="M 17 25 L 22 25 L 22 29.03125 L 17 29.03125 Z M 17 25 " clip-rule="nonzero"/></clipPath><clipPath id="8b1f3ff0a6"><path d="M 8 25 L 13 25 L 13 29.03125 L 8 29.03125 Z M 8 25 " clip-rule="nonzero"/></clipPath></defs><g clip-path="url(#2c2c9ca67a)"><path fill="#608097" d="M 28.960938 9.152344 C 28.570312 8.363281 27.785156 7.746094 26.722656 7.640625 C 26.9375 6.066406 26.128906 4.519531 24.757812 3.65625 C 23.019531 2.566406 20.863281 2.84375 19.042969 3.585938 C 18.371094 1.613281 16.519531 0.105469 14.375 0.0507812 C 12.203125 0 10.277344 1.453125 9.519531 3.414062 C 5.925781 2.644531 2.664062 5.433594 3.316406 9.105469 C 3.054688 9.171875 2.8125 9.257812 2.589844 9.371094 C 0.941406 10.234375 0.496094 12.457031 1.601562 14.144531 C 1.957031 14.679688 2.449219 15.136719 3.003906 15.472656 C 3.550781 15.808594 4.175781 15.878906 4.730469 16.160156 C 5.429688 16.515625 5.546875 17.261719 6.050781 17.804688 C 6.425781 18.214844 6.902344 18.539062 7.414062 18.765625 C 8.613281 19.289062 9.964844 19.210938 11.164062 18.734375 C 11.652344 18.539062 12.515625 17.773438 13.011719 17.894531 C 13.226562 17.953125 13.695312 18.390625 13.902344 18.503906 C 14.191406 18.667969 14.492188 18.808594 14.796875 18.925781 C 17.226562 19.886719 19.957031 19.257812 21.53125 17.191406 C 23.285156 18.011719 25.457031 18.660156 27.148438 17.359375 C 28.609375 16.230469 28.589844 14.246094 28.199219 12.605469 C 29.332031 11.660156 29.507812 10.234375 28.960938 9.152344 Z M 28.960938 9.152344 " fill-opacity="1" fill-rule="nonzero"/></g><g clip-path="url(#43e918a5e8)"><path fill="#385e71" d="M 28.960938 9.152344 C 28.609375 9.769531 28.105469 10.28125 27.46875 10.636719 C 26.894531 10.953125 26.359375 11.039062 25.730469 11.140625 C 25.542969 11.167969 25.347656 11.179688 25.191406 11.296875 C 24.949219 11.472656 24.882812 11.828125 24.757812 12.074219 C 24.425781 12.71875 23.910156 13.183594 23.207031 13.390625 C 22.207031 13.695312 21.757812 13.164062 20.898438 12.9375 C 20.707031 12.886719 20.488281 12.847656 20.296875 12.917969 C 20.101562 12.996094 20.03125 13.195312 19.886719 13.332031 C 19.183594 14.019531 18.320312 14.144531 17.414062 13.675781 C 16.925781 13.425781 16.480469 12.75 15.875 12.851562 C 15.527344 12.917969 15.148438 13.292969 14.832031 13.4375 C 14.289062 13.683594 13.714844 13.824219 13.113281 13.859375 C 11.90625 13.917969 10.746094 13.535156 9.8125 12.769531 C 9.652344 12.640625 9.394531 12.632812 9.285156 12.839844 C 8.789062 13.746094 7.71875 13.714844 7.25 12.800781 C 7.164062 12.640625 6.9375 12.59375 6.785156 12.683594 C 5.546875 13.390625 4 12.820312 3.25 11.667969 C 2.800781 10.972656 2.625 10.183594 2.585938 9.371094 C 0.933594 10.234375 0.492188 12.457031 1.59375 14.144531 C 1.953125 14.679688 2.441406 15.136719 2.996094 15.472656 C 3.542969 15.808594 4.171875 15.878906 4.726562 16.160156 C 5.421875 16.515625 5.539062 17.261719 6.042969 17.804688 C 6.421875 18.214844 6.898438 18.539062 7.40625 18.765625 C 8.605469 19.289062 9.957031 19.210938 11.15625 18.734375 C 11.648438 18.539062 12.507812 17.773438 13.003906 17.894531 C 13.21875 17.953125 13.6875 18.390625 13.898438 18.503906 C 14.183594 18.667969 14.484375 18.808594 14.792969 18.925781 C 17.21875 19.886719 19.953125 19.257812 21.523438 17.191406 C 23.277344 18.011719 25.449219 18.660156 27.140625 17.359375 C 28.601562 16.230469 28.582031 14.246094 28.191406 12.605469 C 29.332031 11.660156 29.507812 10.234375 28.960938 9.152344 Z M 28.960938 9.152344 " fill-opacity="1" fill-rule="nonzero"/></g><path fill="#a5dafc" d="M 8.039062 22.289062 L 7.027344 22.289062 C 7.007812 22.199219 6.96875 22.109375 6.921875 22.03125 L 7.640625 21.320312 C 7.714844 21.246094 7.714844 21.136719 7.640625 21.066406 C 7.570312 20.996094 7.457031 20.996094 7.386719 21.066406 L 6.667969 21.777344 C 6.589844 21.726562 6.507812 21.695312 6.40625 21.675781 L 6.40625 20.671875 C 6.40625 20.574219 6.328125 20.496094 6.230469 20.496094 C 6.132812 20.496094 6.054688 20.574219 6.054688 20.671875 L 6.054688 21.675781 C 5.964844 21.695312 5.875 21.734375 5.792969 21.777344 L 5.078125 21.066406 C 5.003906 20.996094 4.894531 20.996094 4.824219 21.066406 C 4.75 21.136719 4.75 21.246094 4.824219 21.320312 L 5.539062 22.03125 C 5.488281 22.109375 5.457031 22.195312 5.4375 22.289062 L 4.425781 22.289062 C 4.328125 22.289062 4.25 22.367188 4.25 22.464844 C 4.25 22.5625 4.328125 22.640625 4.425781 22.640625 L 5.4375 22.640625 C 5.457031 22.730469 5.496094 22.824219 5.539062 22.898438 L 4.824219 23.613281 C 4.75 23.683594 4.75 23.792969 4.824219 23.867188 C 4.894531 23.9375 5.003906 23.9375 5.078125 23.867188 L 5.792969 23.152344 C 5.875 23.203125 5.957031 23.238281 6.054688 23.257812 L 6.054688 24.261719 C 6.054688 24.359375 6.132812 24.4375 6.230469 24.4375 C 6.328125 24.4375 6.40625 24.359375 6.40625 24.261719 L 6.40625 23.257812 C 6.5 23.238281 6.589844 23.199219 6.667969 23.152344 L 7.386719 23.867188 C 7.457031 23.9375 7.570312 23.9375 7.640625 23.867188 C 7.714844 23.792969 7.714844 23.683594 7.640625 23.613281 L 6.921875 22.898438 C 6.976562 22.824219 7.007812 22.738281 7.027344 22.640625 L 8.039062 22.640625 C 8.136719 22.640625 8.214844 22.5625 8.214844 22.464844 C 8.214844 22.367188 8.136719 22.289062 8.039062 22.289062 Z M 8.039062 22.289062 " fill-opacity="1" fill-rule="nonzero"/><path fill="#a5dafc" d="M 16.929688 22.289062 L 15.917969 22.289062 C 15.898438 22.199219 15.859375 22.109375 15.816406 22.03125 L 16.53125 21.320312 C 16.605469 21.246094 16.605469 21.136719 16.53125 21.066406 C 16.460938 20.996094 16.351562 20.996094 16.277344 21.066406 L 15.5625 21.777344 C 15.484375 21.726562 15.398438 21.695312 15.300781 21.675781 L 15.300781 20.671875 C 15.300781 20.574219 15.222656 20.496094 15.125 20.496094 C 15.027344 20.496094 14.949219 20.574219 14.949219 20.671875 L 14.949219 21.675781 C 14.855469 21.695312 14.765625 21.734375 14.6875 21.777344 L 13.96875 21.066406 C 13.898438 20.996094 13.785156 20.996094 13.714844 21.066406 C 13.644531 21.136719 13.644531 21.246094 13.714844 21.320312 L 14.433594 22.03125 C 14.378906 22.109375 14.347656 22.195312 14.328125 22.289062 L 13.316406 22.289062 C 13.21875 22.289062 13.140625 22.367188 13.140625 22.464844 C 13.140625 22.5625 13.21875 22.640625 13.316406 22.640625 L 14.328125 22.640625 C 14.347656 22.730469 14.386719 22.824219 14.433594 22.898438 L 13.714844 23.613281 C 13.644531 23.683594 13.644531 23.792969 13.714844 23.867188 C 13.785156 23.9375 13.898438 23.9375 13.96875 23.867188 L 14.6875 23.152344 C 14.765625 23.203125 14.851562 23.238281 14.949219 23.257812 L 14.949219 24.261719 C 14.949219 24.359375 15.027344 24.4375 15.125 24.4375 C 15.222656 24.4375 15.300781 24.359375 15.300781 24.261719 L 15.300781 23.257812 C 15.390625 23.238281 15.484375 23.199219 15.5625 23.152344 L 16.277344 23.867188 C 16.351562 23.9375 16.460938 23.9375 16.53125 23.867188 C 16.605469 23.792969 16.605469 23.683594 16.53125 23.613281 L 15.816406 22.898438 C 15.867188 22.824219 15.898438 22.738281 15.917969 22.640625 L 16.929688 22.640625 C 17.027344 22.640625 17.105469 22.5625 17.105469 22.464844 C 17.105469 22.367188 17.035156 22.289062 16.929688 22.289062 Z M 16.929688 22.289062 " fill-opacity="1" fill-rule="nonzero"/><path fill="#a5dafc" d="M 25.828125 22.289062 L 24.816406 22.289062 C 24.796875 22.199219 24.757812 22.109375 24.714844 22.03125 L 25.429688 21.320312 C 25.503906 21.246094 25.503906 21.136719 25.429688 21.066406 C 25.359375 20.996094 25.25 20.996094 25.175781 21.066406 L 24.460938 21.777344 C 24.382812 21.726562 24.296875 21.695312 24.199219 21.675781 L 24.199219 20.671875 C 24.199219 20.574219 24.121094 20.496094 24.023438 20.496094 C 23.925781 20.496094 23.847656 20.574219 23.847656 20.671875 L 23.847656 21.675781 C 23.753906 21.695312 23.664062 21.734375 23.585938 21.777344 L 22.867188 21.066406 C 22.796875 20.996094 22.683594 20.996094 22.613281 21.066406 C 22.542969 21.136719 22.542969 21.246094 22.613281 21.320312 L 23.332031 22.03125 C 23.277344 22.109375 23.246094 22.195312 23.226562 22.289062 L 22.214844 22.289062 C 22.117188 22.289062 22.039062 22.367188 22.039062 22.464844 C 22.039062 22.5625 22.117188 22.640625 22.214844 22.640625 L 23.226562 22.640625 C 23.246094 22.730469 23.285156 22.824219 23.332031 22.898438 L 22.613281 23.613281 C 22.542969 23.683594 22.542969 23.792969 22.613281 23.867188 C 22.683594 23.9375 22.796875 23.9375 22.867188 23.867188 L 23.585938 23.152344 C 23.664062 23.203125 23.75 23.238281 23.847656 23.257812 L 23.847656 24.261719 C 23.847656 24.359375 23.925781 24.4375 24.023438 24.4375 C 24.121094 24.4375 24.199219 24.359375 24.199219 24.261719 L 24.199219 23.257812 C 24.289062 23.238281 24.382812 23.199219 24.460938 23.152344 L 25.175781 23.867188 C 25.25 23.9375 25.359375 23.9375 25.429688 23.867188 C 25.503906 23.792969 25.503906 23.683594 25.429688 23.613281 L 24.714844 22.898438 C 24.765625 22.824219 24.796875 22.738281 24.816406 22.640625 L 25.828125 22.640625 C 25.925781 22.640625 26.003906 22.5625 26.003906 22.464844 C 26.003906 22.367188 25.925781 22.289062 25.828125 22.289062 Z M 25.828125 22.289062 " fill-opacity="1" fill-rule="nonzero"/><g clip-path="url(#badac3f50f)"><path fill="#a5dafc" d="M 21.378906 27.613281 L 20.367188 27.613281 C 20.347656 27.523438 20.308594 27.429688 20.265625 27.351562 L 20.980469 26.640625 C 21.054688 26.570312 21.054688 26.457031 20.980469 26.386719 C 20.910156 26.316406 20.800781 26.316406 20.726562 26.386719 L 20.011719 27.101562 C 19.933594 27.046875 19.847656 27.015625 19.75 26.996094 L 19.75 25.992188 C 19.75 25.894531 19.671875 25.816406 19.574219 25.816406 C 19.476562 25.816406 19.398438 25.894531 19.398438 25.992188 L 19.398438 26.996094 C 19.304688 27.015625 19.214844 27.054688 19.136719 27.101562 L 18.417969 26.386719 C 18.347656 26.316406 18.234375 26.316406 18.164062 26.386719 C 18.09375 26.457031 18.09375 26.570312 18.164062 26.640625 L 18.882812 27.351562 C 18.828125 27.429688 18.796875 27.515625 18.777344 27.613281 L 17.765625 27.613281 C 17.667969 27.613281 17.589844 27.691406 17.589844 27.789062 C 17.589844 27.886719 17.667969 27.960938 17.765625 27.960938 L 18.777344 27.960938 C 18.796875 28.054688 18.835938 28.144531 18.882812 28.222656 L 18.164062 28.933594 C 18.09375 29.007812 18.09375 29.117188 18.164062 29.1875 C 18.234375 29.257812 18.347656 29.257812 18.417969 29.1875 L 19.136719 28.476562 C 19.214844 28.527344 19.300781 28.558594 19.398438 28.578125 L 19.398438 29.582031 C 19.398438 29.679688 19.476562 29.757812 19.574219 29.757812 C 19.671875 29.757812 19.75 29.679688 19.75 29.582031 L 19.75 28.578125 C 19.839844 28.558594 19.933594 28.519531 20.011719 28.476562 L 20.726562 29.1875 C 20.800781 29.257812 20.910156 29.257812 20.980469 29.1875 C 21.054688 29.117188 21.054688 29.007812 20.980469 28.933594 L 20.265625 28.222656 C 20.316406 28.144531 20.347656 28.058594 20.367188 27.960938 L 21.378906 27.960938 C 21.476562 27.960938 21.554688 27.886719 21.554688 27.789062 C 21.554688 27.691406 21.476562 27.613281 21.378906 27.613281 Z M 21.378906 27.613281 " fill-opacity="1" fill-rule="nonzero"/></g><g clip-path="url(#8b1f3ff0a6)"><path fill="#a5dafc" d="M 12.488281 27.613281 L 11.476562 27.613281 C 11.457031 27.523438 11.417969 27.429688 11.371094 27.351562 L 12.089844 26.640625 C 12.164062 26.570312 12.164062 26.457031 12.089844 26.386719 C 12.019531 26.316406 11.90625 26.316406 11.835938 26.386719 L 11.117188 27.101562 C 11.039062 27.046875 10.957031 27.015625 10.855469 26.996094 L 10.855469 25.992188 C 10.855469 25.894531 10.777344 25.816406 10.679688 25.816406 C 10.582031 25.816406 10.503906 25.894531 10.503906 25.992188 L 10.503906 26.996094 C 10.414062 27.015625 10.324219 27.054688 10.242188 27.101562 L 9.527344 26.386719 C 9.453125 26.316406 9.34375 26.316406 9.273438 26.386719 C 9.199219 26.457031 9.199219 26.570312 9.273438 26.640625 L 9.988281 27.351562 C 9.9375 27.429688 9.90625 27.515625 9.886719 27.613281 L 8.875 27.613281 C 8.777344 27.613281 8.699219 27.691406 8.699219 27.789062 C 8.699219 27.886719 8.777344 27.960938 8.875 27.960938 L 9.886719 27.960938 C 9.90625 28.054688 9.945312 28.144531 9.988281 28.222656 L 9.273438 28.933594 C 9.199219 29.007812 9.199219 29.117188 9.273438 29.1875 C 9.34375 29.257812 9.453125 29.257812 9.527344 29.1875 L 10.242188 28.476562 C 10.324219 28.527344 10.40625 28.558594 10.503906 28.578125 L 10.503906 29.582031 C 10.503906 29.679688 10.582031 29.757812 10.679688 29.757812 C 10.777344 29.757812 10.855469 29.679688 10.855469 29.582031 L 10.855469 28.578125 C 10.949219 28.558594 11.039062 28.519531 11.117188 28.476562 L 11.835938 29.1875 C 11.90625 29.257812 12.019531 29.257812 12.089844 29.1875 C 12.164062 29.117188 12.164062 29.007812 12.089844 28.933594 L 11.371094 28.222656 C 11.425781 28.144531 11.457031 28.058594 11.476562 27.960938 L 12.488281 27.960938 C 12.585938 27.960938 12.664062 27.886719 12.664062 27.789062 C 12.664062 27.691406 12.585938 27.613281 12.488281 27.613281 Z M 12.488281 27.613281 " fill-opacity="1" fill-rule="nonzero"/></g><path fill="#d7ecfd" d="M 6.578125 22.472656 C 6.578125 22.566406 6.542969 22.648438 6.476562 22.714844 C 6.410156 22.78125 6.328125 22.816406 6.230469 22.816406 C 6.136719 22.816406 6.054688 22.78125 5.988281 22.714844 C 5.921875 22.648438 5.886719 22.566406 5.886719 22.472656 C 5.886719 22.378906 5.921875 22.296875 5.988281 22.230469 C 6.054688 22.164062 6.136719 22.128906 6.230469 22.128906 C 6.328125 22.128906 6.410156 22.164062 6.476562 22.230469 C 6.542969 22.296875 6.578125 22.378906 6.578125 22.472656 Z M 6.578125 22.472656 " fill-opacity="1" fill-rule="nonzero"/><path fill="#d7ecfd" d="M 15.46875 22.472656 C 15.46875 22.566406 15.4375 22.648438 15.367188 22.714844 C 15.300781 22.78125 15.21875 22.816406 15.125 22.816406 C 15.027344 22.816406 14.945312 22.78125 14.878906 22.714844 C 14.8125 22.648438 14.777344 22.566406 14.777344 22.472656 C 14.777344 22.378906 14.8125 22.296875 14.878906 22.230469 C 14.945312 22.164062 15.027344 22.128906 15.125 22.128906 C 15.21875 22.128906 15.300781 22.164062 15.367188 22.230469 C 15.4375 22.296875 15.46875 22.378906 15.46875 22.472656 Z M 15.46875 22.472656 " fill-opacity="1" fill-rule="nonzero"/><path fill="#d7ecfd" d="M 24.367188 22.472656 C 24.367188 22.566406 24.335938 22.648438 24.265625 22.714844 C 24.199219 22.78125 24.117188 22.816406 24.023438 22.816406 C 23.925781 22.816406 23.84375 22.78125 23.777344 22.714844 C 23.710938 22.648438 23.675781 22.566406 23.675781 22.472656 C 23.675781 22.378906 23.710938 22.296875 23.777344 22.230469 C 23.84375 22.164062 23.925781 22.128906 24.023438 22.128906 C 24.117188 22.128906 24.199219 22.164062 24.265625 22.230469 C 24.335938 22.296875 24.367188 22.378906 24.367188 22.472656 Z M 24.367188 22.472656 " fill-opacity="1" fill-rule="nonzero"/><path fill="#d7ecfd" d="M 19.574219 27.445312 C 19.382812 27.445312 19.226562 27.601562 19.226562 27.789062 C 19.226562 27.976562 19.382812 28.132812 19.574219 28.132812 C 19.761719 28.132812 19.917969 27.976562 19.917969 27.789062 C 19.917969 27.601562 19.769531 27.445312 19.574219 27.445312 Z M 19.574219 27.445312 " fill-opacity="1" fill-rule="nonzero"/><path fill="#d7ecfd" d="M 11.027344 27.789062 C 11.027344 27.882812 10.992188 27.964844 10.925781 28.03125 C 10.859375 28.097656 10.777344 28.132812 10.679688 28.132812 C 10.585938 28.132812 10.503906 28.097656 10.4375 28.03125 C 10.371094 27.964844 10.335938 27.882812 10.335938 27.789062 C 10.335938 27.691406 10.371094 27.613281 10.4375 27.542969 C 10.503906 27.476562 10.585938 27.445312 10.679688 27.445312 C 10.777344 27.445312 10.859375 27.476562 10.925781 27.542969 C 10.992188 27.613281 11.027344 27.691406 11.027344 27.789062 Z M 11.027344 27.789062 " fill-opacity="1" fill-rule="nonzero"/></svg>