<svg xmlns="http://www.w3.org/2000/svg" xmlns:xlink="http://www.w3.org/1999/xlink" width="40" zoomAndPan="magnify" viewBox="0 0 30 30.000001" height="40" preserveAspectRatio="xMidYMid meet" version="1.0"><defs><clipPath id="90f54a8764"><path d="M 1.191406 0.207031 L 28.773438 0.207031 L 28.773438 28 L 1.191406 28 Z M 1.191406 0.207031 " clip-rule="nonzero"/></clipPath><clipPath id="2ff2819397"><path d="M 9 19 L 28.773438 19 L 28.773438 23 L 9 23 Z M 9 19 " clip-rule="nonzero"/></clipPath><clipPath id="8aae4ac6a4"><path d="M 19 1 L 28.773438 1 L 28.773438 14 L 19 14 Z M 19 1 " clip-rule="nonzero"/></clipPath></defs><path fill="#ccedff" d="M 27.789062 8.753906 C 27.789062 9.207031 27.703125 9.640625 27.527344 10.058594 C 27.351562 10.476562 27.101562 10.847656 26.777344 11.167969 C 26.457031 11.488281 26.082031 11.734375 25.660156 11.90625 C 25.238281 12.082031 24.796875 12.167969 24.339844 12.167969 C 23.882812 12.167969 23.445312 12.082031 23.023438 11.90625 C 22.597656 11.734375 22.226562 11.488281 21.902344 11.167969 C 21.582031 10.847656 21.332031 10.476562 21.15625 10.058594 C 20.980469 9.640625 20.894531 9.207031 20.894531 8.753906 C 20.894531 6.867188 24.339844 2.414062 24.339844 2.414062 C 24.339844 2.414062 27.789062 6.867188 27.789062 8.753906 Z M 27.789062 8.753906 " fill-opacity="1" fill-rule="nonzero"/><path fill="#ffffff" d="M 27.789062 8.792969 C 27.789062 9.203125 27.714844 9.601562 27.566406 9.988281 C 27.421875 10.375 27.210938 10.722656 26.9375 11.03125 C 26.664062 11.339844 26.347656 11.59375 25.980469 11.789062 C 25.613281 11.984375 25.226562 12.109375 24.8125 12.167969 C 25.484375 11.503906 25.820312 10.707031 25.820312 9.769531 C 25.820312 8.402344 24.015625 5.691406 23.019531 4.296875 C 23.730469 3.242188 24.339844 2.453125 24.339844 2.453125 C 24.339844 2.453125 27.789062 6.910156 27.789062 8.792969 Z M 27.789062 8.792969 " fill-opacity="1" fill-rule="nonzero"/><path fill="#ccedff" d="M 19.910156 18.019531 C 19.910156 13.171875 11.042969 1.4375 11.042969 1.4375 C 11.042969 1.4375 2.179688 13.171875 2.179688 18.019531 C 2.179688 18.59375 2.234375 19.164062 2.347656 19.730469 C 2.460938 20.296875 2.632812 20.84375 2.855469 21.378906 C 3.078125 21.910156 3.351562 22.414062 3.671875 22.894531 C 3.996094 23.375 4.363281 23.816406 4.777344 24.222656 C 5.1875 24.632812 5.636719 24.996094 6.117188 25.316406 C 6.601562 25.636719 7.113281 25.90625 7.652344 26.125 C 8.1875 26.347656 8.742188 26.511719 9.3125 26.625 C 9.886719 26.738281 10.460938 26.792969 11.042969 26.792969 C 11.625 26.792969 12.203125 26.738281 12.773438 26.625 C 13.34375 26.511719 13.898438 26.347656 14.433594 26.125 C 14.972656 25.90625 15.484375 25.636719 15.96875 25.316406 C 16.453125 24.996094 16.898438 24.632812 17.3125 24.222656 C 17.722656 23.816406 18.089844 23.375 18.414062 22.894531 C 18.738281 22.414062 19.011719 21.910156 19.234375 21.378906 C 19.457031 20.84375 19.625 20.296875 19.738281 19.730469 C 19.851562 19.164062 19.910156 18.59375 19.910156 18.019531 Z M 19.910156 18.019531 " fill-opacity="1" fill-rule="nonzero"/><path fill="#ffffff" d="M 19.910156 18.019531 C 19.910156 18.925781 19.769531 19.8125 19.492188 20.679688 C 19.214844 21.542969 18.808594 22.347656 18.28125 23.089844 C 17.75 23.828125 17.117188 24.472656 16.386719 25.019531 C 15.652344 25.566406 14.855469 25.988281 13.988281 26.289062 C 14.597656 25.890625 15.148438 25.425781 15.636719 24.890625 C 16.128906 24.355469 16.546875 23.769531 16.890625 23.132812 C 17.238281 22.5 17.496094 21.828125 17.675781 21.128906 C 17.851562 20.429688 17.941406 19.714844 17.9375 18.996094 C 17.9375 14.9375 11.722656 6.050781 9.703125 3.273438 C 10.511719 2.140625 11.042969 1.4375 11.042969 1.4375 C 11.042969 1.4375 19.910156 13.171875 19.910156 18.019531 Z M 19.910156 18.019531 " fill-opacity="1" fill-rule="nonzero"/><path fill="#ccedff" d="M 27.789062 21.804688 C 25.621094 21.804688 25.621094 20.085938 23.453125 20.085938 C 21.289062 20.085938 21.289062 21.804688 19.121094 21.804688 C 16.953125 21.804688 16.953125 20.085938 14.785156 20.085938 C 12.621094 20.085938 12.621094 21.804688 10.453125 21.804688 L 10.453125 17.785156 C 12.621094 17.785156 12.621094 16.070312 14.785156 16.070312 C 16.953125 16.070312 16.953125 17.785156 19.121094 17.785156 C 21.289062 17.785156 21.28125 16.070312 23.453125 16.070312 C 25.625 16.070312 25.621094 17.785156 27.789062 17.785156 Z M 27.789062 21.804688 " fill-opacity="1" fill-rule="nonzero"/><g clip-path="url(#90f54a8764)"><path fill="#1aadff" d="M 27.789062 16.808594 C 27.179688 16.8125 26.660156 16.597656 26.234375 16.164062 C 25.855469 15.820312 25.425781 15.554688 24.945312 15.371094 C 24.464844 15.1875 23.964844 15.09375 23.453125 15.09375 C 22.9375 15.09375 22.4375 15.1875 21.957031 15.371094 C 21.476562 15.554688 21.046875 15.820312 20.667969 16.164062 L 20.628906 16.195312 C 19.183594 10.628906 12.144531 1.265625 11.832031 0.855469 C 11.734375 0.738281 11.617188 0.648438 11.480469 0.582031 C 11.339844 0.519531 11.195312 0.484375 11.042969 0.484375 C 10.890625 0.484375 10.746094 0.519531 10.609375 0.582031 C 10.46875 0.648438 10.351562 0.738281 10.253906 0.855469 C 9.328125 2.082031 1.191406 12.992188 1.191406 18.019531 C 1.191406 18.902344 1.3125 19.769531 1.550781 20.621094 C 1.789062 21.472656 2.136719 22.277344 2.59375 23.035156 C 3.054688 23.792969 3.605469 24.472656 4.25 25.082031 C 4.898438 25.691406 5.613281 26.207031 6.398438 26.621094 C 7.1875 27.039062 8.015625 27.34375 8.886719 27.535156 C 9.757812 27.730469 10.636719 27.804688 11.527344 27.761719 C 12.417969 27.71875 13.289062 27.558594 14.132812 27.28125 C 14.980469 27.003906 15.777344 26.621094 16.515625 26.128906 C 16.625 26.054688 16.714844 25.964844 16.789062 25.859375 C 16.859375 25.75 16.910156 25.632812 16.933594 25.507812 C 16.960938 25.378906 16.960938 25.253906 16.933594 25.125 C 16.910156 25 16.859375 24.882812 16.789062 24.773438 C 16.714844 24.667969 16.625 24.578125 16.515625 24.507812 C 16.40625 24.433594 16.289062 24.386719 16.160156 24.359375 C 16.03125 24.335938 15.902344 24.335938 15.777344 24.363281 C 15.648438 24.386719 15.53125 24.4375 15.421875 24.507812 C 14.828125 24.898438 14.191406 25.207031 13.515625 25.429688 C 12.835938 25.648438 12.140625 25.777344 11.429688 25.8125 C 10.714844 25.847656 10.011719 25.789062 9.316406 25.632812 C 8.621094 25.476562 7.957031 25.234375 7.328125 24.902344 C 6.699219 24.566406 6.125 24.15625 5.609375 23.671875 C 5.09375 23.183594 4.652344 22.636719 4.285156 22.03125 C 3.917969 21.425781 3.636719 20.78125 3.449219 20.101562 C 3.257812 19.417969 3.164062 18.726562 3.164062 18.019531 C 3.164062 14.667969 8.277344 6.910156 11.042969 3.097656 C 12.953125 5.746094 17.742188 12.671875 18.738281 16.777344 C 18.289062 16.6875 17.898438 16.484375 17.566406 16.167969 C 17.1875 15.824219 16.757812 15.558594 16.277344 15.371094 C 15.796875 15.1875 15.300781 15.09375 14.785156 15.09375 C 14.269531 15.09375 13.773438 15.1875 13.292969 15.371094 C 12.8125 15.558594 12.382812 15.824219 12.003906 16.167969 C 11.578125 16.597656 11.0625 16.8125 10.453125 16.8125 C 10.324219 16.8125 10.195312 16.835938 10.078125 16.886719 C 9.957031 16.933594 9.847656 17.003906 9.757812 17.097656 C 9.664062 17.1875 9.59375 17.292969 9.542969 17.414062 C 9.492188 17.53125 9.46875 17.65625 9.46875 17.785156 C 9.46875 17.914062 9.492188 18.039062 9.542969 18.160156 C 9.59375 18.277344 9.664062 18.382812 9.757812 18.476562 C 9.847656 18.566406 9.957031 18.636719 10.078125 18.6875 C 10.195312 18.738281 10.324219 18.761719 10.453125 18.761719 C 11.523438 18.769531 12.453125 18.414062 13.234375 17.6875 C 13.4375 17.484375 13.675781 17.324219 13.945312 17.210938 C 14.210938 17.101562 14.492188 17.042969 14.785156 17.042969 C 15.074219 17.042969 15.355469 17.101562 15.625 17.210938 C 15.894531 17.324219 16.128906 17.484375 16.335938 17.6875 C 16.714844 18.03125 17.144531 18.296875 17.625 18.484375 C 18.105469 18.667969 18.601562 18.757812 19.117188 18.757812 C 19.632812 18.757812 20.128906 18.667969 20.609375 18.484375 C 21.089844 18.296875 21.519531 18.03125 21.898438 17.6875 C 22.105469 17.480469 22.34375 17.324219 22.613281 17.210938 C 22.882812 17.101562 23.160156 17.042969 23.453125 17.042969 C 23.746094 17.042969 24.027344 17.101562 24.296875 17.210938 C 24.566406 17.324219 24.804688 17.480469 25.007812 17.6875 C 25.792969 18.410156 26.71875 18.769531 27.789062 18.761719 C 27.917969 18.761719 28.046875 18.734375 28.164062 18.6875 C 28.285156 18.636719 28.394531 18.566406 28.484375 18.476562 C 28.578125 18.382812 28.648438 18.277344 28.699219 18.160156 C 28.75 18.039062 28.773438 17.914062 28.773438 17.785156 C 28.773438 17.65625 28.75 17.53125 28.699219 17.410156 C 28.648438 17.292969 28.578125 17.1875 28.484375 17.09375 C 28.394531 17.003906 28.285156 16.933594 28.164062 16.882812 C 28.046875 16.835938 27.917969 16.808594 27.789062 16.808594 Z M 27.789062 16.808594 " fill-opacity="1" fill-rule="nonzero"/></g><g clip-path="url(#2ff2819397)"><path fill="#1aadff" d="M 27.789062 20.828125 C 27.179688 20.832031 26.660156 20.617188 26.234375 20.183594 C 25.855469 19.839844 25.425781 19.574219 24.945312 19.390625 C 24.464844 19.203125 23.964844 19.113281 23.453125 19.113281 C 22.9375 19.113281 22.4375 19.203125 21.957031 19.390625 C 21.476562 19.574219 21.046875 19.839844 20.667969 20.183594 C 20.464844 20.390625 20.226562 20.546875 19.957031 20.660156 C 19.6875 20.773438 19.40625 20.828125 19.117188 20.828125 C 18.824219 20.828125 18.542969 20.773438 18.273438 20.660156 C 18.003906 20.546875 17.769531 20.390625 17.5625 20.183594 C 17.183594 19.839844 16.753906 19.574219 16.273438 19.390625 C 15.792969 19.203125 15.296875 19.113281 14.78125 19.113281 C 14.265625 19.113281 13.769531 19.203125 13.289062 19.390625 C 12.808594 19.574219 12.378906 19.839844 12 20.183594 C 11.574219 20.617188 11.058594 20.828125 10.449219 20.828125 C 10.320312 20.828125 10.195312 20.851562 10.074219 20.902344 C 9.953125 20.949219 9.847656 21.019531 9.753906 21.113281 C 9.660156 21.203125 9.589844 21.308594 9.539062 21.429688 C 9.492188 21.546875 9.464844 21.671875 9.464844 21.800781 C 9.464844 21.929688 9.492188 22.054688 9.539062 22.175781 C 9.589844 22.292969 9.660156 22.398438 9.753906 22.492188 C 9.847656 22.582031 9.953125 22.652344 10.074219 22.703125 C 10.195312 22.753906 10.320312 22.777344 10.449219 22.777344 C 11.523438 22.785156 12.449219 22.429688 13.230469 21.703125 C 13.433594 21.5 13.671875 21.339844 13.941406 21.226562 C 14.210938 21.117188 14.488281 21.0625 14.78125 21.0625 C 15.074219 21.0625 15.351562 21.117188 15.621094 21.226562 C 15.890625 21.339844 16.128906 21.5 16.332031 21.703125 C 16.710938 22.050781 17.140625 22.3125 17.621094 22.5 C 18.101562 22.683594 18.597656 22.777344 19.113281 22.777344 C 19.628906 22.777344 20.128906 22.683594 20.609375 22.5 C 21.085938 22.3125 21.515625 22.050781 21.898438 21.703125 C 22.101562 21.5 22.339844 21.339844 22.609375 21.226562 C 22.878906 21.117188 23.160156 21.058594 23.453125 21.058594 C 23.742188 21.058594 24.023438 21.117188 24.292969 21.226562 C 24.5625 21.339844 24.800781 21.5 25.003906 21.703125 C 25.789062 22.429688 26.714844 22.789062 27.789062 22.777344 C 27.917969 22.777344 28.046875 22.753906 28.164062 22.703125 C 28.285156 22.65625 28.394531 22.585938 28.484375 22.492188 C 28.578125 22.402344 28.648438 22.296875 28.699219 22.175781 C 28.75 22.058594 28.773438 21.933594 28.773438 21.804688 C 28.773438 21.675781 28.75 21.550781 28.699219 21.429688 C 28.648438 21.308594 28.578125 21.203125 28.484375 21.113281 C 28.394531 21.023438 28.285156 20.953125 28.164062 20.902344 C 28.046875 20.851562 27.917969 20.828125 27.789062 20.828125 Z M 27.789062 20.828125 " fill-opacity="1" fill-rule="nonzero"/></g><g clip-path="url(#8aae4ac6a4)"><path fill="#1aadff" d="M 24.339844 13.144531 C 24.632812 13.144531 24.921875 13.113281 25.207031 13.058594 C 25.492188 13.003906 25.769531 12.917969 26.039062 12.808594 C 26.304688 12.699219 26.5625 12.5625 26.804688 12.402344 C 27.046875 12.242188 27.269531 12.0625 27.476562 11.855469 C 27.679688 11.652344 27.863281 11.433594 28.027344 11.191406 C 28.1875 10.953125 28.324219 10.699219 28.4375 10.433594 C 28.546875 10.167969 28.632812 9.894531 28.6875 9.609375 C 28.746094 9.328125 28.773438 9.042969 28.773438 8.753906 C 28.773438 6.644531 25.734375 2.609375 25.125 1.820312 C 25.027344 1.707031 24.910156 1.617188 24.773438 1.554688 C 24.636719 1.492188 24.492188 1.460938 24.339844 1.460938 C 24.191406 1.460938 24.046875 1.492188 23.910156 1.554688 C 23.773438 1.617188 23.65625 1.707031 23.558594 1.820312 C 22.949219 2.609375 19.910156 6.644531 19.910156 8.753906 C 19.910156 9.042969 19.9375 9.328125 19.992188 9.609375 C 20.050781 9.894531 20.132812 10.167969 20.246094 10.433594 C 20.355469 10.699219 20.492188 10.953125 20.65625 11.191406 C 20.816406 11.433594 21 11.652344 21.207031 11.855469 C 21.414062 12.0625 21.636719 12.242188 21.878906 12.402344 C 22.121094 12.5625 22.375 12.699219 22.644531 12.808594 C 22.914062 12.917969 23.191406 13.003906 23.476562 13.058594 C 23.761719 13.113281 24.050781 13.144531 24.339844 13.144531 Z M 24.339844 4.074219 C 25.539062 5.761719 26.804688 7.875 26.804688 8.753906 C 26.804688 9.078125 26.742188 9.386719 26.617188 9.6875 C 26.492188 9.984375 26.3125 10.25 26.082031 10.476562 C 25.851562 10.707031 25.585938 10.882812 25.285156 11.007812 C 24.980469 11.128906 24.667969 11.191406 24.339844 11.191406 C 24.015625 11.191406 23.699219 11.128906 23.398438 11.007812 C 23.097656 10.882812 22.832031 10.707031 22.601562 10.476562 C 22.367188 10.25 22.191406 9.984375 22.066406 9.6875 C 21.941406 9.386719 21.878906 9.078125 21.878906 8.753906 C 21.878906 7.875 23.144531 5.761719 24.339844 4.074219 Z M 24.339844 4.074219 " fill-opacity="1" fill-rule="nonzero"/></g></svg>