<svg xmlns="http://www.w3.org/2000/svg" xmlns:xlink="http://www.w3.org/1999/xlink" width="40" zoomAndPan="magnify" viewBox="0 0 30 30.000001" height="40" preserveAspectRatio="xMidYMid meet" version="1.0"><defs><clipPath id="b00f2143ba"><path d="M 3.386719 4 L 6 4 L 6 7 L 3.386719 7 Z M 3.386719 4 " clip-rule="nonzero"/></clipPath><clipPath id="fa25ae507c"><path d="M 3.386719 6 L 6 6 L 6 8 L 3.386719 8 Z M 3.386719 6 " clip-rule="nonzero"/></clipPath><clipPath id="7edd0e012e"><path d="M 3.386719 7 L 6 7 L 6 10 L 3.386719 10 Z M 3.386719 7 " clip-rule="nonzero"/></clipPath><clipPath id="0570d151f6"><path d="M 11 1 L 20 1 L 20 28.304688 L 11 28.304688 Z M 11 1 " clip-rule="nonzero"/></clipPath><clipPath id="a1025b8ec4"><path d="M 11 0.726562 L 20 0.726562 L 20 28.304688 L 11 28.304688 Z M 11 0.726562 " clip-rule="nonzero"/></clipPath><clipPath id="b5a33bd625"><path d="M 19 13 L 28.066406 13 L 28.066406 21 L 19 21 Z M 19 13 " clip-rule="nonzero"/></clipPath></defs><path fill="#ebc21c" d="M 5.675781 7.089844 C 5.675781 8.199219 6.574219 9.101562 7.6875 9.105469 C 8.796875 9.105469 9.699219 8.203125 9.699219 7.089844 C 9.699219 5.980469 8.800781 5.078125 7.6875 5.074219 C 6.578125 5.074219 5.675781 5.976562 5.675781 7.089844 " fill-opacity="1" fill-rule="nonzero"/><path fill="#ebc21c" d="M 7.988281 4.902344 L 7.386719 4.902344 L 7.390625 2.785156 L 7.992188 2.785156 L 7.988281 4.902344 " fill-opacity="1" fill-rule="nonzero"/><path fill="#ebc21c" d="M 7.984375 11.394531 L 7.382812 11.394531 L 7.386719 9.277344 L 7.984375 9.277344 L 7.984375 11.394531 " fill-opacity="1" fill-rule="nonzero"/><path fill="#ebc21c" d="M 6.855469 5.042969 L 6.335938 5.34375 L 5.28125 3.511719 L 5.800781 3.210938 L 6.855469 5.042969 " fill-opacity="1" fill-rule="nonzero"/><path fill="#ebc21c" d="M 10.09375 10.667969 L 9.574219 10.96875 L 8.519531 9.136719 L 9.039062 8.835938 L 10.09375 10.667969 " fill-opacity="1" fill-rule="nonzero"/><g clip-path="url(#b00f2143ba)"><path fill="#ebc21c" d="M 5.945312 5.734375 L 5.644531 6.253906 L 3.816406 5.195312 L 4.117188 4.675781 L 5.945312 5.734375 " fill-opacity="1" fill-rule="nonzero"/></g><path fill="#ebc21c" d="M 11.558594 8.984375 L 11.257812 9.503906 L 9.429688 8.445312 L 9.726562 7.925781 L 11.558594 8.984375 " fill-opacity="1" fill-rule="nonzero"/><g clip-path="url(#fa25ae507c)"><path fill="#ebc21c" d="M 5.503906 6.789062 L 5.503906 7.390625 L 3.390625 7.386719 L 3.390625 6.785156 L 5.503906 6.789062 " fill-opacity="1" fill-rule="nonzero"/></g><path fill="#ebc21c" d="M 11.984375 6.792969 L 11.984375 7.394531 L 9.871094 7.390625 L 9.871094 6.792969 L 11.984375 6.792969 " fill-opacity="1" fill-rule="nonzero"/><g clip-path="url(#7edd0e012e)"><path fill="#ebc21c" d="M 5.644531 7.921875 L 5.945312 8.441406 L 4.113281 9.5 L 3.8125 8.976562 L 5.644531 7.921875 " fill-opacity="1" fill-rule="nonzero"/></g><path fill="#ebc21c" d="M 11.261719 4.679688 L 11.5625 5.203125 L 9.730469 6.257812 L 9.429688 5.738281 L 11.261719 4.679688 " fill-opacity="1" fill-rule="nonzero"/><path fill="#ebc21c" d="M 6.332031 8.832031 L 6.851562 9.132812 L 5.796875 10.964844 L 5.277344 10.664062 L 6.332031 8.832031 " fill-opacity="1" fill-rule="nonzero"/><path fill="#ebc21c" d="M 9.578125 3.214844 L 10.097656 3.515625 L 9.039062 5.347656 L 8.519531 5.046875 L 9.578125 3.214844 " fill-opacity="1" fill-rule="nonzero"/><g clip-path="url(#0570d151f6)"><path fill="#ee2e32" d="M 15.585938 28.011719 C 13.40625 28.011719 11.632812 26.238281 11.632812 24.054688 C 11.632812 23.308594 11.839844 22.582031 12.234375 21.953125 C 12.566406 21.421875 13.027344 20.972656 13.566406 20.648438 L 13.664062 20.589844 L 13.664062 3.050781 C 13.664062 2.480469 13.863281 1.960938 14.226562 1.585938 C 14.582031 1.226562 15.066406 1.023438 15.585938 1.023438 C 16.109375 1.023438 16.589844 1.226562 16.945312 1.585938 C 17.308594 1.960938 17.507812 2.480469 17.507812 3.050781 L 17.507812 20.589844 L 17.609375 20.648438 C 18.148438 20.972656 18.605469 21.421875 18.941406 21.953125 C 19.332031 22.582031 19.539062 23.308594 19.539062 24.054688 C 19.539062 26.238281 17.765625 28.011719 15.585938 28.011719 " fill-opacity="1" fill-rule="nonzero"/></g><g clip-path="url(#a1025b8ec4)"><path fill="#ee2e32" d="M 15.585938 28.300781 C 13.25 28.300781 11.34375 26.394531 11.34375 24.054688 C 11.34375 23.253906 11.566406 22.476562 11.988281 21.800781 C 12.339844 21.246094 12.816406 20.769531 13.378906 20.425781 L 13.378906 3.050781 C 13.378906 2.402344 13.609375 1.8125 14.023438 1.386719 C 14.433594 0.96875 14.988281 0.738281 15.585938 0.738281 C 16.1875 0.738281 16.742188 0.96875 17.148438 1.386719 C 17.566406 1.8125 17.792969 2.402344 17.792969 3.050781 L 17.792969 20.425781 C 18.355469 20.769531 18.832031 21.242188 19.183594 21.800781 C 19.605469 22.476562 19.828125 23.253906 19.828125 24.054688 C 19.828125 26.394531 17.925781 28.300781 15.585938 28.300781 " fill-opacity="1" fill-rule="nonzero"/><path fill="#ffffff" d="M 15.585938 28.136719 C 13.339844 28.136719 11.507812 26.304688 11.507812 24.054688 C 11.507812 23.285156 11.722656 22.539062 12.128906 21.890625 C 12.480469 21.324219 12.96875 20.855469 13.542969 20.519531 L 13.542969 3.050781 C 13.542969 2.445312 13.753906 1.898438 14.140625 1.503906 C 14.519531 1.113281 15.03125 0.902344 15.585938 0.902344 C 16.140625 0.902344 16.65625 1.113281 17.03125 1.5 C 17.417969 1.898438 17.628906 2.445312 17.628906 3.050781 L 17.628906 20.519531 C 18.203125 20.851562 18.691406 21.324219 19.042969 21.890625 C 19.449219 22.535156 19.664062 23.285156 19.664062 24.054688 C 19.664062 26.304688 17.835938 28.136719 15.585938 28.136719 " fill-opacity="1" fill-rule="nonzero"/></g><path fill="#51abe4" d="M 19.5 24.054688 C 19.5 26.214844 17.746094 27.972656 15.585938 27.972656 C 13.429688 27.972656 11.671875 26.214844 11.671875 24.054688 C 11.671875 23.316406 11.878906 22.597656 12.269531 21.976562 C 12.625 21.40625 13.121094 20.9375 13.707031 20.617188 L 13.707031 3.050781 C 13.707031 2.488281 13.902344 1.980469 14.257812 1.617188 C 14.605469 1.261719 15.074219 1.066406 15.585938 1.066406 C 16.097656 1.066406 16.570312 1.261719 16.914062 1.617188 C 17.269531 1.980469 17.464844 2.488281 17.464844 3.050781 L 17.464844 20.617188 C 18.050781 20.9375 18.550781 21.40625 18.90625 21.976562 C 19.292969 22.597656 19.5 23.316406 19.5 24.054688 " fill-opacity="1" fill-rule="nonzero"/><path fill="#ffffff" d="M 15.585938 27.765625 C 13.542969 27.765625 11.878906 26.101562 11.878906 24.054688 C 11.878906 23.355469 12.074219 22.675781 12.441406 22.085938 C 12.777344 21.546875 13.25 21.101562 13.804688 20.796875 L 13.914062 20.738281 L 13.914062 3.050781 C 13.914062 2.542969 14.089844 2.085938 14.40625 1.761719 C 14.710938 1.445312 15.132812 1.273438 15.585938 1.273438 C 16.039062 1.273438 16.460938 1.445312 16.769531 1.761719 C 17.085938 2.085938 17.257812 2.542969 17.257812 3.050781 L 17.257812 20.738281 L 17.367188 20.796875 C 17.921875 21.101562 18.394531 21.546875 18.730469 22.085938 C 19.097656 22.675781 19.292969 23.355469 19.292969 24.054688 C 19.292969 26.101562 17.628906 27.765625 15.585938 27.765625 " fill-opacity="1" fill-rule="nonzero"/><path fill="#51abe4" d="M 16.347656 21.402344 L 16.347656 5.0625 L 14.824219 5.0625 L 14.824219 21.402344 C 13.65625 21.734375 12.800781 22.8125 12.800781 24.089844 C 12.800781 25.628906 14.046875 26.878906 15.585938 26.878906 C 17.125 26.878906 18.375 25.628906 18.375 24.089844 C 18.375 22.8125 17.515625 21.734375 16.347656 21.402344 " fill-opacity="1" fill-rule="nonzero"/><path fill="#ee2e32" d="M 15.585938 5.0625 L 14.824219 5.0625 L 14.824219 21.402344 C 13.644531 21.734375 12.789062 22.8125 12.789062 24.089844 C 12.789062 25.625 14.039062 26.871094 15.585938 26.878906 L 15.585938 5.0625 " fill-opacity="1" fill-rule="nonzero"/><path fill="#9bdae6" d="M 16.347656 14.851562 L 15.585938 14.851562 L 15.585938 5.0625 L 16.347656 5.0625 L 16.347656 14.851562 " fill-opacity="1" fill-rule="nonzero"/><path fill="#ffffff" d="M 15.910156 5.546875 L 15.289062 5.546875 L 15.289062 5.359375 L 15.914062 5.363281 L 15.910156 5.546875 " fill-opacity="1" fill-rule="nonzero"/><path fill="#ffffff" d="M 15.90625 9.46875 L 15.28125 9.46875 L 15.28125 9.28125 L 15.90625 9.285156 L 15.90625 9.46875 " fill-opacity="1" fill-rule="nonzero"/><path fill="#ffffff" d="M 15.898438 13.367188 L 15.273438 13.367188 L 15.273438 13.179688 L 15.898438 13.183594 L 15.898438 13.367188 " fill-opacity="1" fill-rule="nonzero"/><path fill="#ffffff" d="M 15.890625 17.148438 L 15.265625 17.148438 L 15.269531 16.960938 L 15.890625 16.960938 L 15.890625 17.148438 " fill-opacity="1" fill-rule="nonzero"/><path fill="#ffffff" d="M 15.886719 21.183594 L 15.261719 21.183594 L 15.261719 21 L 15.886719 21 L 15.886719 21.183594 " fill-opacity="1" fill-rule="nonzero"/><path fill="#ffffff" d="M 15.65625 6.238281 L 15.296875 6.238281 L 15.296875 6.09375 L 15.65625 6.09375 L 15.65625 6.238281 " fill-opacity="1" fill-rule="nonzero"/><path fill="#ffffff" d="M 15.652344 7.019531 L 15.292969 7.019531 L 15.292969 6.875 L 15.65625 6.878906 L 15.652344 7.019531 " fill-opacity="1" fill-rule="nonzero"/><path fill="#ffffff" d="M 15.652344 7.800781 L 15.292969 7.800781 L 15.292969 7.660156 L 15.652344 7.660156 L 15.652344 7.800781 " fill-opacity="1" fill-rule="nonzero"/><path fill="#ffffff" d="M 15.652344 8.582031 L 15.289062 8.582031 L 15.292969 8.441406 L 15.652344 8.441406 L 15.652344 8.582031 " fill-opacity="1" fill-rule="nonzero"/><path fill="#ffffff" d="M 15.648438 10.148438 L 15.289062 10.148438 L 15.289062 10.003906 L 15.648438 10.003906 L 15.648438 10.148438 " fill-opacity="1" fill-rule="nonzero"/><path fill="#ffffff" d="M 15.648438 10.929688 L 15.285156 10.929688 L 15.289062 10.785156 L 15.648438 10.785156 L 15.648438 10.929688 " fill-opacity="1" fill-rule="nonzero"/><path fill="#ffffff" d="M 15.644531 11.710938 L 15.285156 11.710938 L 15.285156 11.566406 L 15.644531 11.566406 L 15.644531 11.710938 " fill-opacity="1" fill-rule="nonzero"/><path fill="#ffffff" d="M 15.644531 12.492188 L 15.285156 12.492188 L 15.285156 12.347656 L 15.644531 12.351562 L 15.644531 12.492188 " fill-opacity="1" fill-rule="nonzero"/><path fill="#ffffff" d="M 15.640625 14.113281 L 15.28125 14.113281 L 15.28125 13.96875 L 15.640625 13.96875 L 15.640625 14.113281 " fill-opacity="1" fill-rule="nonzero"/><path fill="#ffffff" d="M 15.640625 14.839844 L 15.28125 14.835938 L 15.28125 14.695312 L 15.640625 14.695312 L 15.640625 14.839844 " fill-opacity="1" fill-rule="nonzero"/><path fill="#ffffff" d="M 15.640625 15.621094 L 15.277344 15.621094 L 15.277344 15.476562 L 15.640625 15.476562 L 15.640625 15.621094 " fill-opacity="1" fill-rule="nonzero"/><path fill="#ffffff" d="M 15.636719 16.402344 L 15.277344 16.402344 L 15.277344 16.257812 L 15.636719 16.257812 L 15.636719 16.402344 " fill-opacity="1" fill-rule="nonzero"/><path fill="#ffffff" d="M 15.636719 17.84375 L 15.273438 17.84375 L 15.277344 17.699219 L 15.636719 17.703125 L 15.636719 17.84375 " fill-opacity="1" fill-rule="nonzero"/><path fill="#ffffff" d="M 15.632812 18.726562 L 15.273438 18.726562 L 15.273438 18.582031 L 15.632812 18.582031 L 15.632812 18.726562 " fill-opacity="1" fill-rule="nonzero"/><path fill="#ffffff" d="M 15.632812 19.519531 L 15.273438 19.519531 L 15.273438 19.375 L 15.632812 19.375 L 15.632812 19.519531 " fill-opacity="1" fill-rule="nonzero"/><path fill="#ffffff" d="M 15.632812 20.351562 L 15.269531 20.351562 L 15.269531 20.210938 L 15.632812 20.210938 L 15.632812 20.351562 " fill-opacity="1" fill-rule="nonzero"/><g clip-path="url(#b5a33bd625)"><path fill="#51abe4" d="M 23.445312 17.429688 C 23.226562 17.308594 23.148438 17.03125 23.269531 16.816406 C 23.390625 16.597656 23.667969 16.519531 23.882812 16.640625 C 24.101562 16.761719 24.179688 17.039062 24.058594 17.257812 C 23.9375 17.472656 23.660156 17.550781 23.445312 17.429688 Z M 25.949219 20.640625 L 25.484375 19.859375 L 26.007812 19.992188 C 26.082031 20.011719 26.160156 19.96875 26.179688 19.890625 C 26.195312 19.816406 26.152344 19.742188 26.078125 19.722656 L 25.28125 19.519531 L 24.839844 18.78125 L 26.199219 19.125 C 26.273438 19.140625 26.347656 19.097656 26.367188 19.023438 C 26.386719 18.949219 26.339844 18.871094 26.265625 18.851562 L 24.636719 18.441406 L 24.132812 17.597656 C 24.199219 17.539062 24.257812 17.472656 24.300781 17.390625 C 24.339844 17.328125 24.363281 17.257812 24.378906 17.1875 L 25.394531 17.175781 L 26.550781 18.300781 C 26.558594 18.308594 26.570312 18.316406 26.578125 18.320312 C 26.632812 18.351562 26.703125 18.34375 26.746094 18.296875 C 26.800781 18.242188 26.800781 18.152344 26.746094 18.097656 L 25.789062 17.167969 L 26.660156 17.15625 L 27.230469 17.710938 C 27.242188 17.722656 27.25 17.726562 27.261719 17.734375 C 27.316406 17.765625 27.382812 17.753906 27.429688 17.710938 C 27.484375 17.652344 27.480469 17.566406 27.425781 17.511719 L 27.054688 17.152344 L 27.925781 17.136719 C 28.003906 17.136719 28.066406 17.074219 28.066406 16.996094 C 28.0625 16.917969 28 16.855469 27.921875 16.859375 L 27.015625 16.871094 L 27.394531 16.480469 C 27.449219 16.425781 27.445312 16.339844 27.390625 16.285156 C 27.335938 16.230469 27.25 16.230469 27.195312 16.289062 L 26.621094 16.878906 L 25.761719 16.890625 L 26.738281 15.882812 C 26.789062 15.828125 26.789062 15.738281 26.734375 15.683594 C 26.679688 15.632812 26.589844 15.632812 26.535156 15.6875 L 25.367188 16.894531 L 24.382812 16.910156 C 24.355469 16.75 24.277344 16.605469 24.15625 16.492188 L 24.648438 15.605469 L 26.199219 15.164062 C 26.273438 15.144531 26.316406 15.066406 26.296875 14.992188 C 26.277344 14.917969 26.199219 14.875 26.125 14.898438 L 24.839844 15.261719 L 25.265625 14.496094 L 26.035156 14.28125 C 26.109375 14.257812 26.152344 14.183594 26.128906 14.109375 C 26.109375 14.035156 26.03125 13.992188 25.957031 14.011719 L 25.457031 14.152344 L 25.882812 13.390625 C 25.921875 13.324219 25.898438 13.238281 25.832031 13.199219 C 25.761719 13.164062 25.679688 13.1875 25.640625 13.253906 L 25.199219 14.046875 L 25.050781 13.523438 C 25.03125 13.449219 24.953125 13.40625 24.878906 13.429688 C 24.804688 13.449219 24.761719 13.527344 24.78125 13.601562 L 25.007812 14.390625 L 24.585938 15.144531 L 24.203125 13.796875 C 24.183594 13.722656 24.105469 13.679688 24.03125 13.699219 C 23.957031 13.71875 23.914062 13.796875 23.933594 13.871094 L 24.394531 15.492188 L 23.914062 16.347656 C 23.757812 16.292969 23.59375 16.292969 23.441406 16.339844 L 22.921875 15.46875 L 23.316406 13.902344 C 23.335938 13.828125 23.289062 13.75 23.214844 13.730469 C 23.140625 13.710938 23.0625 13.757812 23.042969 13.832031 L 22.71875 15.128906 L 22.269531 14.378906 L 22.464844 13.605469 C 22.484375 13.527344 22.441406 13.453125 22.363281 13.433594 C 22.289062 13.414062 22.214844 13.460938 22.195312 13.535156 L 22.070312 14.039062 L 21.621094 13.289062 C 21.582031 13.222656 21.496094 13.199219 21.429688 13.238281 C 21.363281 13.28125 21.34375 13.367188 21.382812 13.429688 L 21.847656 14.210938 L 21.320312 14.078125 C 21.246094 14.058594 21.171875 14.105469 21.152344 14.179688 C 21.136719 14.242188 21.164062 14.304688 21.21875 14.335938 C 21.230469 14.339844 21.242188 14.347656 21.253906 14.347656 L 22.050781 14.550781 L 22.492188 15.292969 L 21.132812 14.949219 C 21.058594 14.929688 20.980469 14.972656 20.960938 15.050781 C 20.945312 15.113281 20.976562 15.175781 21.03125 15.207031 C 21.039062 15.210938 21.050781 15.214844 21.0625 15.21875 L 22.691406 15.632812 L 23.195312 16.476562 C 23.128906 16.53125 23.070312 16.597656 23.027344 16.679688 C 22.992188 16.746094 22.964844 16.8125 22.949219 16.882812 L 21.9375 16.898438 L 20.777344 15.773438 C 20.722656 15.71875 20.636719 15.71875 20.582031 15.773438 C 20.527344 15.828125 20.53125 15.917969 20.585938 15.972656 L 21.542969 16.902344 L 20.667969 16.914062 L 20.097656 16.359375 C 20.042969 16.304688 19.953125 16.308594 19.898438 16.363281 C 19.847656 16.417969 19.847656 16.507812 19.902344 16.558594 L 20.273438 16.921875 L 19.402344 16.933594 C 19.324219 16.933594 19.265625 17 19.265625 17.074219 C 19.265625 17.128906 19.292969 17.171875 19.335938 17.195312 C 19.355469 17.207031 19.382812 17.214844 19.40625 17.214844 L 20.3125 17.199219 L 19.933594 17.589844 C 19.882812 17.644531 19.882812 17.734375 19.9375 17.789062 C 19.945312 17.796875 19.957031 17.804688 19.96875 17.808594 C 20.019531 17.839844 20.089844 17.832031 20.136719 17.785156 L 20.707031 17.195312 L 21.570312 17.183594 L 20.59375 18.1875 C 20.539062 18.242188 20.539062 18.332031 20.597656 18.386719 C 20.605469 18.394531 20.613281 18.402344 20.625 18.40625 C 20.679688 18.4375 20.75 18.429688 20.792969 18.382812 L 21.964844 17.175781 L 22.945312 17.160156 C 22.972656 17.320312 23.050781 17.46875 23.175781 17.578125 L 22.679688 18.464844 L 21.128906 18.90625 C 21.054688 18.925781 21.011719 19.003906 21.03125 19.078125 C 21.054688 19.152344 21.128906 19.195312 21.203125 19.175781 L 22.488281 18.8125 L 22.0625 19.574219 L 21.296875 19.792969 C 21.222656 19.8125 21.179688 19.890625 21.199219 19.964844 C 21.210938 20 21.234375 20.03125 21.265625 20.046875 C 21.296875 20.066406 21.335938 20.070312 21.371094 20.058594 L 21.871094 19.917969 L 21.445312 20.679688 C 21.40625 20.75 21.433594 20.832031 21.5 20.871094 C 21.566406 20.910156 21.652344 20.886719 21.6875 20.816406 L 22.132812 20.023438 L 22.277344 20.546875 C 22.300781 20.621094 22.378906 20.664062 22.449219 20.644531 C 22.523438 20.621094 22.566406 20.546875 22.546875 20.472656 L 22.324219 19.679688 L 22.742188 18.925781 L 23.125 20.277344 C 23.136719 20.3125 23.160156 20.34375 23.191406 20.359375 C 23.222656 20.378906 23.261719 20.382812 23.296875 20.371094 C 23.371094 20.351562 23.414062 20.273438 23.394531 20.199219 L 22.9375 18.582031 L 23.414062 17.722656 C 23.570312 17.78125 23.738281 17.78125 23.890625 17.730469 L 24.410156 18.605469 L 24.015625 20.171875 C 24 20.234375 24.027344 20.296875 24.082031 20.328125 C 24.09375 20.332031 24.101562 20.335938 24.117188 20.339844 C 24.191406 20.359375 24.265625 20.3125 24.285156 20.238281 L 24.613281 18.945312 L 25.058594 19.695312 L 24.863281 20.46875 C 24.847656 20.53125 24.875 20.59375 24.929688 20.625 C 24.941406 20.628906 24.953125 20.632812 24.964844 20.636719 C 25.039062 20.65625 25.113281 20.609375 25.132812 20.535156 L 25.261719 20.035156 L 25.707031 20.785156 C 25.722656 20.804688 25.738281 20.820312 25.757812 20.832031 C 25.800781 20.855469 25.855469 20.859375 25.898438 20.832031 C 25.964844 20.792969 25.988281 20.707031 25.949219 20.640625 " fill-opacity="1" fill-rule="nonzero"/></g><path fill="#51abe4" d="M 23.347656 15.511719 L 23.535156 15.839844 C 23.550781 15.863281 23.566406 15.878906 23.589844 15.890625 C 23.609375 15.902344 23.632812 15.910156 23.660156 15.910156 C 23.710938 15.910156 23.753906 15.878906 23.78125 15.835938 L 23.980469 15.472656 C 23.996094 15.4375 24 15.402344 23.992188 15.363281 L 23.796875 14.703125 C 23.78125 14.644531 23.726562 14.601562 23.664062 14.601562 C 23.601562 14.601562 23.546875 14.644531 23.53125 14.703125 L 23.332031 15.402344 C 23.320312 15.4375 23.328125 15.476562 23.347656 15.511719 " fill-opacity="1" fill-rule="nonzero"/><path fill="#51abe4" d="M 22.085938 16.507812 C 22.09375 16.515625 22.105469 16.523438 22.117188 16.53125 C 22.136719 16.542969 22.160156 16.550781 22.1875 16.550781 L 22.566406 16.546875 C 22.617188 16.546875 22.664062 16.523438 22.6875 16.476562 C 22.710938 16.433594 22.710938 16.378906 22.683594 16.335938 L 22.46875 15.980469 C 22.449219 15.949219 22.417969 15.925781 22.382812 15.917969 L 21.714844 15.753906 C 21.652344 15.738281 21.589844 15.765625 21.558594 15.820312 C 21.527344 15.875 21.535156 15.941406 21.582031 15.988281 L 22.085938 16.507812 " fill-opacity="1" fill-rule="nonzero"/><path fill="#51abe4" d="M 21.558594 18.253906 C 21.574219 18.277344 21.589844 18.292969 21.613281 18.304688 C 21.644531 18.324219 21.679688 18.328125 21.714844 18.320312 L 22.417969 18.140625 C 22.453125 18.132812 22.484375 18.109375 22.503906 18.074219 L 22.695312 17.746094 C 22.71875 17.703125 22.71875 17.648438 22.691406 17.605469 C 22.667969 17.5625 22.621094 17.535156 22.570312 17.535156 L 22.152344 17.546875 C 22.117188 17.546875 22.082031 17.5625 22.054688 17.589844 L 21.582031 18.085938 C 21.535156 18.132812 21.527344 18.199219 21.558594 18.253906 " fill-opacity="1" fill-rule="nonzero"/><path fill="#51abe4" d="M 23.984375 18.5625 L 23.792969 18.230469 C 23.769531 18.1875 23.722656 18.160156 23.671875 18.164062 C 23.621094 18.164062 23.574219 18.191406 23.550781 18.234375 L 23.351562 18.601562 C 23.332031 18.632812 23.328125 18.671875 23.339844 18.707031 L 23.53125 19.367188 C 23.542969 19.40625 23.566406 19.433594 23.597656 19.453125 C 23.617188 19.464844 23.640625 19.46875 23.667969 19.46875 C 23.726562 19.46875 23.78125 19.429688 23.800781 19.367188 L 23.996094 18.667969 C 24.007812 18.632812 24.003906 18.59375 23.984375 18.5625 " fill-opacity="1" fill-rule="nonzero"/><path fill="#51abe4" d="M 25.246094 17.566406 C 25.21875 17.539062 25.183594 17.523438 25.144531 17.523438 L 24.761719 17.523438 C 24.714844 17.523438 24.667969 17.550781 24.640625 17.59375 C 24.617188 17.636719 24.617188 17.691406 24.644531 17.734375 L 24.859375 18.089844 C 24.875 18.113281 24.890625 18.128906 24.910156 18.140625 C 24.921875 18.148438 24.933594 18.152344 24.945312 18.15625 L 25.617188 18.316406 C 25.675781 18.332031 25.738281 18.304688 25.769531 18.25 C 25.800781 18.199219 25.792969 18.128906 25.75 18.085938 L 25.246094 17.566406 " fill-opacity="1" fill-rule="nonzero"/><path fill="#51abe4" d="M 25.769531 15.816406 C 25.738281 15.765625 25.675781 15.738281 25.613281 15.753906 L 24.910156 15.929688 C 24.875 15.941406 24.84375 15.964844 24.824219 15.996094 L 24.636719 16.328125 C 24.609375 16.371094 24.609375 16.425781 24.636719 16.46875 C 24.648438 16.488281 24.667969 16.507812 24.6875 16.519531 C 24.710938 16.53125 24.734375 16.535156 24.757812 16.535156 L 25.175781 16.527344 C 25.210938 16.527344 25.246094 16.511719 25.273438 16.484375 L 25.75 15.984375 C 25.792969 15.941406 25.800781 15.871094 25.769531 15.816406 " fill-opacity="1" fill-rule="nonzero"/></svg>